<mxfile host="65bd71144e">
    <diagram id="SXckG7pPjp7xjFeAzBp8" name="Page-1">
        <mxGraphModel dx="990" dy="614" grid="0" gridSize="10" guides="1" tooltips="1" connect="1" arrows="1" fold="1" page="1" pageScale="1" pageWidth="1600" pageHeight="900" math="0" shadow="0">
            <root>
                <mxCell id="0"/>
                <mxCell id="1" parent="0"/>
                <mxCell id="53" value="" style="group" vertex="1" connectable="0" parent="1">
                    <mxGeometry x="266" y="98" width="861" height="518" as="geometry"/>
                </mxCell>
                <mxCell id="10" value="&lt;span style=&quot;font-size: 10px;&quot;&gt;&lt;b style=&quot;font-size: 10px;&quot;&gt;Logs and Report&lt;br style=&quot;font-size: 10px;&quot;&gt;Database&lt;br style=&quot;font-size: 10px;&quot;&gt;&lt;/b&gt;&lt;/span&gt;" style="shape=cylinder3;whiteSpace=wrap;html=1;boundedLbl=1;backgroundOutline=1;size=15;fillColor=#e1d5e7;strokeColor=#9673a6;fontSize=10;" parent="53" vertex="1">
                    <mxGeometry x="76" width="100" height="140" as="geometry"/>
                </mxCell>
                <mxCell id="20" value="" style="group" parent="53" vertex="1" connectable="0">
                    <mxGeometry y="259" width="231" height="259" as="geometry"/>
                </mxCell>
                <mxCell id="13" value="" style="rounded=0;whiteSpace=wrap;html=1;fillColor=#fad7ac;strokeColor=#b46504;" parent="20" vertex="1">
                    <mxGeometry width="231" height="259" as="geometry"/>
                </mxCell>
                <mxCell id="14" value="&lt;span style=&quot;font-size: 16px&quot;&gt;&lt;b&gt;CXR Image Storage&lt;/b&gt;&lt;/span&gt;" style="rounded=1;whiteSpace=wrap;html=1;fillColor=#f8cecc;strokeColor=#b85450;align=center;" parent="20" vertex="1">
                    <mxGeometry x="16.5" y="8.35483870967742" width="189.75" height="111.95483870967743" as="geometry"/>
                </mxCell>
                <mxCell id="17" value="Model Configs&lt;br&gt;&amp;amp;&lt;br&gt;Weights" style="rounded=1;whiteSpace=wrap;html=1;fillColor=#b0e3e6;strokeColor=#0e8088;fontStyle=1" parent="20" vertex="1">
                    <mxGeometry x="16.5" y="129.5" width="191.5" height="83.55" as="geometry"/>
                </mxCell>
                <mxCell id="19" value="Storage Container" style="text;html=1;strokeColor=none;fillColor=none;align=center;verticalAlign=middle;whiteSpace=wrap;rounded=0;fontStyle=1;fontSize=14;" parent="20" vertex="1">
                    <mxGeometry x="61.87500000000001" y="229.75806451612902" width="107.25000000000001" height="16.70967741935484" as="geometry"/>
                </mxCell>
                <mxCell id="56" value="" style="html=1;verticalLabelPosition=bottom;align=center;labelBackgroundColor=#ffffff;verticalAlign=top;strokeWidth=2;strokeColor=#0080F0;shadow=0;dashed=0;shape=mxgraph.ios7.icons.down;fontFamily=Verdana;fontSize=10;" vertex="1" parent="20">
                    <mxGeometry x="100.88" y="88" width="21" height="25.5" as="geometry"/>
                </mxCell>
                <mxCell id="57" value="" style="outlineConnect=0;dashed=0;verticalLabelPosition=bottom;verticalAlign=top;align=center;html=1;shape=mxgraph.aws3.bucket;fillColor=#E05243;gradientColor=none;fontFamily=Verdana;fontSize=10;" vertex="1" parent="20">
                    <mxGeometry x="195" y="223.36" width="25" height="29.5" as="geometry"/>
                </mxCell>
                <mxCell id="26" value="" style="group" vertex="1" connectable="0" parent="53">
                    <mxGeometry x="400" y="44" width="278.06" height="447" as="geometry"/>
                </mxCell>
                <mxCell id="4" value="" style="rounded=0;whiteSpace=wrap;html=1;fontSize=16;fillColor=#dae8fc;strokeColor=#6c8ebf;" parent="26" vertex="1">
                    <mxGeometry width="261" height="447" as="geometry"/>
                </mxCell>
                <mxCell id="6" value="" style="shape=image;imageAspect=0;aspect=fixed;verticalLabelPosition=bottom;verticalAlign=top;fontSize=16;image=data:image/webp,UklGRgQ1AABXRUJQVlA4TPg0AAAvI0UZETcwl0My7YoBoIGTHQ55FMB+C+BGMBwehadt2zwz2/6vqsk5rkIy5gzGLaTHBD0mocdn9J/3/xoQqo4/req4/ySi/64gyYqaNcG4HhFFzicg8qVCc/iqG9hhYZV0DeazAR8m4oVhA4+iJ13YI6B5ki6UGMi0cKHGQCFdSoMCLV1LogwSiUS2MEKCRE5IpCKQsL/+K7/+K7/+K7/+K7/+K7/+K7/+K7/+K7/+K7/+K7/+K78+KrIFK5BPmGEE8mmuTIWBXAnXcMLAi3QpMwx0pEuxCJOZla/HSwVfuOhpJV+f+Wa9XizgltNXY/Gaqaw2YMsppZWEwSiBHH79x6//+P8oMLMN7LDQpPY6XQPvdRLL+IDPPCAhtNcp/B1nkXxT7qhGbQAlg7zXqhKKrDQ+UfJFw93r4tZoiaHlvhaKTH+6t/IeQN7rEwamUtEoK1Myey0VOWDNUJDdyDEIea+tVOQSuERBfsMTuWpQrVfToAwxCypmGQnY+Z/LlKJx2xXIxrCCjB2qYrAU8cASBz+t15EsKbJFr7BpZEUQaS1byhIJAklrgaT1r//0f3nSw7440mZVJOJIl03eE0Z6eHXhyyB9xzv0riWRtuV1U2+LIH33Ns2xHNJm/zMLj4Ec0tWtHDOlkE5v5x8rhPT+ThWHJI92zpVzIoJ0ej9fYfmjzff9fLIFkL6f0+u7/NGpg6YH4kd/nnGfkgmaeekZ7zJB85u+v0HRo3euloDo0aWjvida4mjf8gKKjsDR/oc0kzvanDzKkxQ72tQeRUKKHZ36aH0gbTTINV5omaNN6aX3iczRpvZCkUgaDVZg+UTk6G/vV3UlcLQtG9+RwNGmabxHokDzmeM9kjd6748ikTbalgD6f5Y22tQQ1cuRNhqm+kRdYaN3QAdf1Gh7amBGokabGgaZqNFDsGLPJI1eQmGi5Yw2eygUWtDoEuwYDLSY0aYGQyZgNEJdAzviRWMczImY0d+AKKSMtqAv27UrZLSpIZFJF41yOAotWzSSe/MkY/QOFpmM0SV0SoGI0RUwniSMNg0wMitgdAqfwC9g9BIcT/JFmz04MgGjS4RaBsoXXcGjG/20bqFXyD4NztESB2T2ul2eVOjug5iEeJo69hOCaSrPF1bjOAvc3aogLsfW1hh4xt7rlnvr/7uAb30jJ+OIcluLwdlrXFP3xFpwPZwLH5vhnHnUGdntZgVqD7/i3Us7eJKLWujcd5Ct9r5GfRLQseaxreDfqBl+HZumbgqw5Y73qjiMvdfrI+g+F8XCsvDOR8EDhmqrlFYGbDll9T2zg73XoPtsmER54D0NVGhuEPrCuW+54+61aR2HatY0SDMka1gh4Um08A8JU9HCCQm5aE2WjTzOqLAwkCzUjTjOMA0WcsHCCA2FliukaGj6cvX5wMOzXCk7PEytYCUV4S0oVxMnPDRypZSI6MhVUhEingQSU8lKvAzF1KLRATplY3znBgKEnSa013YNvdPv2FoGv7sHWlfB58j16dzFqCpm90BOkIM/XYjkdMyhFxYbXeG6bUt294nnyL39KEE+YP7fESoGwRdX0tPYeWng7jVybz9C1nIfpEl7wjD90uCeN4OcY5CpUQ2zLRvcnDhqiqZ1iYpp8AnKTDXqTmfIWs6otEv5EOeAQSAQV1yimgkzY5hvZYbc24+ws8yEuCc38FYkksHuimNOqpZIuwItScph7FHRJKEnTJizbnsljdzbj2grO1x0gk+hUkZE+yLxFoLDxTgOFPXBMUd+7ANGGn8iQVm2rVIAZOyLuykdErcAcMYOFaaFFHPCRR7vCjIsSFbTIXhDhVkxhlkhK9ggaViR0YTExKq1V0OfQKJpoxd/tMJSaNPY6EQCzbHMWmyatjLQ0UerFqKH2HiOddrSpitkvGiBoi22kkkUbSpsCA1NeyLXEkXfnCCgq79v88XmPGw3m81iMf9rxYL2VojAztebo8tuHbeLVy1t8aBNcvWSXY5+F8t2nohaPGgzX8Pk7rEd68ikk/ahcbS/6OmYpDX1eFA+wyaJFLqt5DLZLPCeRCOtyctlsvoxFhH61DAbtj0tAPGgIOBGRiGtaceDfjf8hncrHenp/xiiyRPhSE/fcURTdCKfBgDPT1800tOXDdPhVTBos+KKpi8YNF8Ufbmg04bvJxELevgDPP9UKuJBLWM071JBm5rzZywUtGKNIol1uUyAW844D5lMyGXakjWarkjIZRrmKGL9/h5/oSPew0Qk6B1zNB2BiAc1K+7IBSL/c8UezVgg4kFT9igScUhPV4o9GnmglarZz4jx9HR/VNyRCQStSu54UQJBf3NHN8rp1oualwh6yX1bWiLoEfu0IomgDfs1Y5xuu009RblcZtttaiARcpnKMN9UEuVymS23YmF1jN/fA/GAYbzX1DJBj1jjRSmJiAdVhvWK3TjP/7zlVuwomYgHVf+Y35Ub5enprbZipoSCVkPeKUWxnp7eYvmy9VWk0222YKHFglbffOfoSKdbbcFnHel0qy3YUXJBm4pvLGis0y224FQpuaDVjnNierTLZbZVNlhWRxutGdBK1Yy3GuVymS0249nGG62x6Rab0VPxTrfWjPw8jnaa8oygqHsvDjKN7ejS2GuDA4PsLFgonFgmFD2YCVyk7f3+4FPKAWnzETYZDZFNAP5DpfWURkhVcSbS248M6afbHjKcDouuJIC007h7PUDuhwLYWgajbRVomWggd5gD3GfqKizyXmtcB79zM26Icpkg5sRu2jwcZVSjuk7DGh4TTaY/M+gK96Ysi6VlBhsNg6YysvAhgO2dKIIa3gt50801CHuN3duPLO4Bg0yyNugbDYFOjJTOF6Dd5mh+78DP1gvQvZ4rRWiv7XANu9fz5F6IKIU+YLAtU44+GQQt5TgyoN3myMUqsoB7rRXnvbaktNwuRYX2VbwNnNxU88ks5VJIWpiDFSZaQrBmtnQiId8vdtkMyQeG3L5NR0CazaZiJ9whINuv+d37KBCLuTXEhCBu2byxFFrXooHZgWeeLpKB4YZpRmyS8WvNNvdUuYhpuiwhiWPzcWBdAKNE4G1zq2pBErgVM7/HSF8c6PBtc2j415eu1cfm7zwoh/Xm8PNhEoNtPNrUTZQOnZYXOohSZLbV5VbjFEUiHN+wysz3M1q/uWmbrUBnMyKL6wyraMVEySNnW5sb1dGKvpaLcXgJvw1DehxMeRXsojVO3rY3Z8to/a8zhDEOdGzFcfrd6hZHGbGplu09J1K/SbsXahfMWw+p0iA+o/TbudxjJhdzguwx4mt5/A5j9Gva/q76mRzez3OrWgHx+a+2/fEvNlOI1CMYTrGZhm6vIYbbKvrnryziPTFWPwRU8ciOr7JLlUQsLuV/iiK2/Z6WRWwfTEOv2CoGfz2a/PZN7KG49rfKIY6LV2W0HOK4WfTs6FKihuCh2B6vhu12s5m/aqOVtUr48McopfXZoFz5D66LahIHcK+7gAiip8URhZUwJWDe13E0YSqQ6Cp5RPJIUUbTkvKoZEqklHBqZ20b1Ailt3VjYgk9JY5KYeVRyZQ8LvIkkOgCQs5ywErkEbmWR2QPFt8RuqSM5e3bEUj0Hix2UbSkkkdMtTzi+eEq8rikCeaSnYLqDdTFEDIrj8pUP1wlSgWO5KvM2uTxPoFHDC0pj8geL9IoFTgSr9o4dGQEwfvAkxEkcCSPeHnEqKMnXv4hI57k1sUwS/5CyxTC642hVpEkty6JGQ711SOeKGNnjoQoQfy026dIEu8QxAyHuj8gidm76Af9IkbjZo6RR0wVIsSqHuYDgcR184SI4g0+hXnUiKA5oniDz5N+0LACd/sjQFPbx08uGqJ4O0X2uFFFjXjHo6YrcZyjTCWPc1QZOXMkQlQ4yNuDw3yL4xyl9qEzh30jrkiTYGa4vbj6Zaxg8tAhj3NUGi9zBAwh1a0fjbzFgoL0Yp9YyfrqoSt1xGR9JYticJmSRzw9eJTxEgsqi0JHhXrw+CePc9ROHueoVbxkNCQOIh5h33pzaYxkNHQDopTjUOh1V5gIQU89fNRxUnqOMCZfPl8gjMmXXXlEoQIA/6LkflxhTL58DgEs40MCThyRh0GL+UZL0qUc3pc7uMyRj8SiAG8Zf1tFjNi6DGaB/nyZI4yJRX0dBvgXH0mXApVYhN+P+4Qxar4bDK0mHhO4zBfGxKLMqlAYokPeSBYTizoqGFBFhryRLEbNTwMC/6JiWiii5qPghTYso2KrwhgR2lUBgVFUZFcpixGhmQ4J2Cp28hmSu7pv98JCOUXCQ+2HhbKPIukOKXikz5B/y4OzaCgYQhgjQqdWBcZQx8XtuFKYeUERHGNTxolIpvQVpdwND+wiIA+N8MBSHqfVMPyndYCgFsdppapYeh5FQWvMr0GIwJwCf1oHycQu/NeWxk11w0QZRcvaUlfZxGmooIqBJ1sLD6mjeJgWwXzZJmdI44p9HSoTs9C/1UwWNzWxKliGOh6m5S8T9DxkXlDtKfRzYpNEGY8kZJRZyNd1QBhXHKvzIIsrFknYoIyAaRnMT6N7hjCumOvAQRr+MsIymJ9GL3heK3oV9OJGYii+PlDBg/AWXy9uTYuh+HqmwkcZhX1VB2TwXvE8UQE0VGEukSmK6Zc9HULYhfnSkph+2Q2kzuAQ3neaCeOCEx1GsKdIEO6QujoQZCaUMAvqpUNpGIX10tK44HNAIZgXLC7pRKE0YxfYFQETxdSijgoo6IBeWhoX7IYVvgO5QNCwwiqciykRxgUTFVhDHej1AJO+vAL7OrSwD/AtC2D2Bd0A6+Y+oZzrlSjGzU90gOEUwLHyATYjyGPlZS+L316YoQriDM8lMW6+o8MMu9DNY0gaZ/SDraPz1eFbkJMkxoR2w627bO3DWLZDCKWFByrghjpk5wvjjHHIweyCVrZDFGNCBybsUAXrQ40I44yn0OvAb6sgjQMNPYwC+AnrBPAmn0KFH75DNJko+CZn4Z1MJG9FfI+tCsBRGbjdyUwAb6kY2DDsxYHyOFaqihiRdQlq9/xMheKQhmfOqZK40cxtvvBlqdFT4TgsI+DhCKTqYSqLXkjCloE4dpsvexkYFCosh2FoRspLYXJRbkITuzAsUV4aJzMTnLBVMD6sgyCuPNHhCZWG4U09orjywAYp9oG3zpUiiSsXnTD9Kl0FYcGLYhg5n/cuY1mcHGgVrEMZpKlEMpeDZZGogB1GdbjlUhmwo1N4ZuQrdPkFdsIWalQFWRRo6A6fIVqTIHnLnb/vvI7g3Z37blTwwqxCrNjF8B3VIbZFUVx4osMYaViJGtk7kEAxj77VgYxlkOd3JUVPi5xbq4IZn+F4S09Q5qoaai0gIX6ycFkvrJEG1lNwi+GGuyq0sQw+YUyJy3ooNzq8sQqumx7lT/JoYP0gchm9vJswh6pD5y7cMB/FykIy8WaP+zbYYffBUyqtHG7kXWmlZHGU91TID8bWgSKLGfSD3gWQXIcApqqPw/9rPoJjCxYDwlVoaJaoCIBZhtHWg1uIPZC2LnV3+nRUNAyncPhDEw0wtg6WPwz6NMwQEesQwej5d6PjAiGwylZFx/AVTjW/COoMscTxq9QyMFrMTf5SjPLe1VgSqeKvVZEyrB75HbjmDEmkih9rCCJVJCZmoNJH/TtqYD8f8b+ayIGx1SP+19gZ9KNdJu9ZGz1QdvVokywj6KuMeqTLvOufa0TPMuUDvSH8vEYkfUaPcgMLFU9QJq0f5TOYR9WwfICfYmAiC+rjAWZQoKJrsJ8PVy44iv7v68HFNqkoGx7aZ2FtnMEMH9anGGsTa4oalQ9qGx0VcYPRh4eUPUFPxd1gHtDMhVKxh9Gj+RR9FX9Q9rF8tolRUTisA2SxGCjTpH4UYfu+isjh7TF83ns6JmFm1QP4t1elohJK2UP7/9uFiUtotW57NkoH2+ab2PasitTPqGpxNlZhbEsvtdBaxetgzn9bt+9afWtV3A66bSU+ioU1VkculNGtSi4SFcWDscN1i66l4xjKmlE7phzlP0P2sUzodeutdBwbreJ60Gq4abmAFOQScSn0cWixX1fLxziUeqta61fED0P9UbXSr9gf2ubHca4EYDDWvh3bI97zVWklAoO16u3QCtt+7xirpGC4pFj/PdTco+EXiVGiMFhl1HB9ZLz8tm+UTAzmjeni20VPgX6jOwFptGbnkz0uOlZJx2BH6yMn5lUrARkucrlMiO2iry/Li8hHX4jh+lDTDkLNE3uHkY+l9PVNvJsj0XmLv0rZG2WEicuqZr450PKwXs3zFLiUEf+seVsfjjSs5HlPq+vkIPHBlVU6fFtvjjXWusfNedmroNrVEsI0DN/mm83xCHcFbLeb+evlLkbzw1csUYPRVp1VM3qdr9ebzeFwPBZ1fcPoF/XxeDxsNpv1fP7as9peiY8I2GCvsj+48CN9CXPdynrFGG21stYqbdWPZY2Ss+GWIddOUfsCOfz6j1//8es/fv3Hr//49R+//uPXf/z6j1//8es/fv3Hr//4v3BYH47FcZE8erxdH/xIaMDv6mczBerH3gqKEdFuX2ZU32pQ2iB4IxrFIAJQhUGT0n7dblfbuGgl220YvIT2PDJagX4QBm8xpRsXTWSbh8FLVciD/90NBMGoapqIGO3DoFv7pA59+ycyXgNPEgbvsCkJ+bUbB3TD4B1Nd+Pi/cZM7QPuWxVUDn7AdiulXAdBU5oXOi5e3IkNg1chFvCog+CloVk366ATFxiEwctQfQp2jBz7FcbjtQ7iAqkb/oRBNyaZxsXLrZqGgXWQ/e8VskCAFT3lzRFaHpVciZ6y/G9I2swEkp79nyb613/61386sOlf/+lf/+mwpn/9p3/9px85/es/zZL+9Z+GpH/9p3/9p83f+WV4/ctR+ft2pWOWr7J6dKXj+d+kFei3+bxHAb2E1Fk5GwboE/jWs0Rg3+68GejjZtHjo/xdb4533pPxK6PnWp7f1nFx1rFG9zKR6FMi2w6q2dkc65+nb0PiokoP1/21AULHm0N9x+zMNbqdsKndXr53j4EhcH1v28WmrxlguD446Xj7ypj++qn3LtJhnB/c3uY59kO9/TSN794Ps147vixvRCfCrCuf1zdPXPF6hf/bMfUfMw8dHxeaJ20/cR9TLD3U7v1lgEhfnpp4PWG+z6tR3vSxftW+ffxEE1Z8u81DPqb9y7d/HlmO9Oq2xi2pw5iPNYmH2u1rP+vb50cPI6h6hOhWJVQViD4CtO3T3Q5E98HhR6c14kkcfRE9f/Z07zkksfpBTTFGaT4AAM30NUlDANP1dYoF4x6O826xaDKPqtqhdgJxvJIpwBPNmTXQy5e3wI16ANYDfggq9guu59QQDNiv4XoyEy+6xDuL9gDWZ3zwD0Wh8TrWWJ4AX9VwBpKaMqwgO8yRprbYAVDHA82I/sDrVnaAnU+kGOM/Y97gvpZrgn3kbg3bhxcSWgpwHyEj9mdpBatjPnTaYD1eslmBnsB3aCfM+9HIzQewqSW0jdtNsEDJEFzOH6yBtJTC9tA6fudCD2s0f8cH9FG0pB6NfA2uZZgvQn9z8lYIfm9FwjHutUXvTGhHDwwI1vAdvAD0qIx8nQt4UzsA6n1eCB9fBfYL/9GEfsN/WNCfjRu6JHv+2RY5cXZqUU1tD6w7hIHP9FRod+q1MZ0vxocB/dY0OM+Pa/27ohqy22FOTpe5/rlTnyg6hrAOcD49CoYArePDDTTfvok41tTpYY1laFfU+9OZW8jT4pravm/QEK/XbCReCvXOYdcn8MXT8YA67SHL4HsCZ2hHcYL7aOS412BGtdsovlsfBbAVDdDcBc22Q0EWHdr0V+MODeLEEfZ4GUcvNbKp9TI4tm4Qhwm28oXaq0Gw8Ymq4wSXRnTzE18bhcKFjWBZPiF3zMhnEraU4/XpYQjAzzup4DZ9HWfINJ4V+0q2n77lPTw8a9xrMAe3pSBTojAV9O7cNyCwBUQXFpKm5Kfu0ujxecTsrBeYrXs5NiQWcrV+nBXAhVguU6LruEOV/mr8AHBdE17Gx7Jb4jrrzgsR6KAyY2+FiqNATA73g4CONRUaNkm66x8tQHoZs3KFrVHx5G4cCQw9LEOQMu7ghEMKOn7WFOkUzXP02XCwUlyhS2RfCl3j2OSeCo6Ngi1OBWDRlCR03CFI27pBUtKaxIXtj50jliSvPyKdSmeDo+zhdUxIpmdFRcf0aP/rs6/9/OLkgwKuzm9NEfuG8DCFa/IvfhscktExGo3o5ve90/mwN4hDF+iXH6ShoHZsSdkoRNoA5pOOjonRK5hIGtJGp+vvnpEc2HWAwinaOiRkNNnomBY9qnFsMod4SMJJbzuacDQUpBXa66A2JxqlDjaYANI0ooRz67oOFytlSRNuYV2+yoq2r4TPKZ0Qou0nyPHV1K/rIvGkacJpzFcxFSkNQo9I6bhI6NArvIihlJbVpVuArhq+yo520I2Tq9clQ6c12gVvibmuCTu6cPGS8FUMtaiFvmYxdjXnkDS+S1VYTd9XmbGjc5cxX2VH/Iiy8oZpInQJZEyt85iWv4sbnTuMySueY7ajip6GSdAfiPGUS07OKU1MHa5rtopZcUkEYGF0XkjQKZz7wyGOpugwo5/vjxkpHLwpfa7jJqNAD2vEcUrR9tK86O79CDT6ipdXiOvIzAj6wAjQ9gvuwDKJxk540fpuHCgDBXVMKGcG8ld/QYD+BL7HjYHRmWhOdH4/cYKvMuMSocDF6CTo9BtmkNHQNDpFwol+uiu9zUFhYEHCZxBO0uj0tDdNZKGx1XzkxZ440Z278pgcFMLymECtqsbF6PSx6QosB5YfNjwLo5MzonMkP2Sx3azni83mSEn5hOxmR4uzlg81Vuw8qtG56Hi93hyOQM64P01ioZ7GDQYUx8PmcDiiy2fi4LjZzBdr956WNNAIdn+x6Ctj9PW5nB/IeClroAvw9axbo3rWavV3U1OR86igdKyVskZf+UjXADoeoNJmBZe9NqbzvV38NUaPrLXDOZSlkpGht4uetZczeF5v5FTUU9Fz80N6l1pj7jm2GxrKEuYK7Cn7w8emtbJuJfu4NXEkiaU3PTvSN0zqJR2n8p+AolFFKgeYwYBN39qr03Ftnw3XNcyGadDb/kWjZ6irwbro+QleUHrhYLC0SQ/ACtoJ3PZ69n4PZDJrArdDmhOEjjvKmHs7q/S6RqYJ5Ak3MXie8W1fX2yUewUGgYQEKNDFq1N/hhquvayIPVoJHWaNrwxriKILrNIOGrYQuZ4+eaMGuekcobCijkKkv6AWstrVMw5TBoTLLpu0wpKRXyHkhelmdjzsrQove00zq7GVHV7xLtocAD1eSJZL0THOJ9AeaMaDfkDZcolxRQVQ6g9i4lQHnR4r7apjPfy65ScH9sktjMf5s7MKWakAgrOYRQb0cNOJco8eu2asl46VP42eStC3WLv9nmDKOE01Ll34yTbYdX3tLbP38ImbZUpaoSojf+NofWD1F2pU6BDoEnT/8UUvPd3WUAtZrPiqd+t3FFf+Nzq70YBf612282bxqqEtyIW13qVZYSp73BtDtfrCjArdAV2CHl6VL3eg0SXYqTsDZfpd+Rkdq1cYUaErwK/1Dkc4uYEz7zWM9i9aAU8xla8Yg/YX0Cnx7k8xJXLeJsZWeHKZNOQ64I0O+h1uU0x6gNQ/tm40kS3eLVIzPCUFKGgRwED65pPmM+29NeUNPXRN78CiVzW6SP7J84Qn6KIFhcWjBwrnayr0nIeN3aMpO9+jCHER2rQGmYT3fg0Q71PsIdEjsCh5g2Z0KOTZika/W6zSJwkUCGt1iaVUFHJpWWFNlp7BFo2WzWluNQptwOQ6rKZsdNSogrbEVqTLSNgBhSn9o7lxlKF/fDC+pfLkMV37xn0DmZ3SKcUUhbZwC2mf4mMpFJ9qPK8mJLroYGf9jZ3v5xJHWfoeRQoXYYZzmDoWMXfBjgKgXUPLwMbKw43DzgTO73Lq+Bs0Ws2sO6RSiPsJRSlp5KymU5QsA080dGxXLhceAI0o1+HXwt1UMjuuvAy1C005M/olkQz3zKjGUGooFxv1r9wv5YqIn8uWLpKF8LSpKBTKu6RSTGUKa6ohgMeZE5VMSfUeXjEzv+gzKnnzThHO+QAWs/q+cYGnDZxch6d/D8hGwf2rIkGgJwoPlQfAa/xUwSvfZDL6M5/wLtaOjI71513LCIJGk+tQfqjJ2I+jGtIMLgmXaZTS8X+YFbhiSzrlz9oafKOEdKy+4PM/R5Lr6Ph61AiVB7iDdFhX/mOLOIfOWNkKWjEQeaECBk/BD15NSMejw41Tf7GMQGgc4WDre9QpeSErQG89iFQI3lYpBdGW0MqSlF+8Bp6RUtLxzzs7irFRCp42YHIdeEZninAQfUaJD02ugb0rzzH4bOATuveyIAmNcmBHMcOqieLiR7UXYWgcuQ48a6Cn8a0UL7+Q7xiRMyNasVgfVPKA69AqCke71bOMVkSJOU+ZqxMPTpsZmKQtntHJaCUcToHpCeb0Ckpeh0YaZga2kznOdX3yjAmF0zGP+vOi5Jvh7S6hXteY58QXPYWIEy0fsf4EVVJMbwqsEPwzaOpYl1n9eeHkOgCMjveYSgxeoUHpzOLPofNCF4aeCtShLHpQAPN7ZJAhv4JHPczhF7KIRmdgkY4WmCO3hKk9Ci3Hoa+xzCOgYk7oAVMw/1Thgm+SNbqCpw2cXAeEtLRPjv3EIn2eIekcdZySk6hbQSoVtWRYWwPGzZceOuZBO8p1oPpfUnJR40so13pFdWm1IxeNZWpAml6o5gRnmEztsTQj2oJFyaNGuPUVNSsl14B0R1FcEjEx9ASnpPSc7BROWnjosYOcaLAspa1GPNM5QbPoRJO0Uip6HpA3OGVH77oeVmALrjy8FTxoWLmOnsWU0HnGdFPcTQQc/YSL2kMvFCczilYKkE40lPOaWcWEBpXrMBoEBF1sA2QYvZCgYkRQL+YEpZiSYDrsDCy1yF3Hmg89qkjVviSl6GJ/u+LlHk11ekkw1sCsoBRT+8R2kQsKdKB8SD3Nhy7BFsI1OhNcRwXmQCz9hDsIrjm1uJWaAlKsh2QAQWehC3TB5FYzoQGj5DUU/hEMZhvnM1NoKBuvj4sTSb2UQErqXpQ0KlZA3oDU4+rnQqdwGUeBnWYqNgqMTw6KLgzymiQP4x5I2ZGsT+cIaMWlhw3Og85HgHIduEYnUySd7A6YJCHFNbME2dsGdIi+oT2RuKYiBzrNZ44HnYHJdUAaHZJxukN3a+ouTVHLtm5IvmCbGkYp3RNicfENk6J+IphQhFr2EYHE4xHNOF33DOeA6ERRDMy9otexFEapnD2RNM2eBjksf9g8XxhYlDwgUh//HsGw6VSD0IWhaXKwsYNRappxkRbE32Ur5zkUaUQMLPpJzhQ2dhDu147onB1RhzMFOUYGJQERMSVvoGB0TJBGxATW6BBNZUgh/HJLmnPMt1eaAMWY0Cl9R07ZE8TJGTrPaRM6Az7S7tc+zTCIBqE72D5NqjUaBxG1WDYej8xHMcbrRQNcg5kmSSMuRMA1Ss4gaSJ7ILTFNrJUBWZPEMqOqKugZhCW3crVeVUkacb1dioUVaPTuU3DVfS6HQ7jDkLZUXUVDF5IoKvagx4bCs56RsGnA2AuljSXVGS9cimAYjyuffwFAfDPdcn2oDNLIlbjhexV/HyHZpQkMKXgTjpftvdSbIm+PrwSIKB2ctZxW9C51iT0NtBUjc4LBN3FPlVkvXLDCuASq9z9PkQXTPzv0sxVW9BFX9PQ22KOP7zWWCGQJsEGXa9cCeC1qWh5uwBsjJ729k9MdVvQOcZx5jVkFsAvZEgamw4B2JOr4p+Q/0LXPuz7JxU9K440kZO+Y4Zc36ZJOnKuTisJd3IPQNO9CXHk7J/zlpkfq9agM91yuKm4IrPYoOuVW3orZkQ454Da2+q1rnkWUKU5jE7MUOjb1yBJb9c3XaT+yowwKkdL3z9eo8eL9s5er9XQANh2z9g4kQ3WqKG/MqPmT/GPzvrjf5FaojSHyvbbkhuSmzTNhHxnU0PXzc68PT8FDZxcE9R9USimNAXbzVTc0POnuyTxRATeyopwZOQ/79iFpWs0KFeaQiIBO3T86Q66X4/as8yBRnPuCWPnGvKEKNq4ReQyB7rN0PX3C2maUCRQetuQO3rJpt4mXfu6ClPFliZgIdTscJNmhP4PhWRYzR+WLnLt6ypMNV/a9cy3GcgHQWq6UT/GEVNvX+aLpmv8cu9r8A9jGt3vYjljR9PDVxOWB/vnfYa/CSchDl3TOHzxxJnGtoxMww1PAI4gSaAaAkj/6YmweRx5h5v/ccISD9M2A/lomoYyvJUT4dgF6+qt8kVXEaapx84POSuOyEhOFEyU0hFEtIwE1jSyv2nEGTuaaAhjiapQv7y/OSmYKNpL+eNttKa2tWBW/gph82i8cXIEbxr3QKSMYVwndHspK0eFM6yv0udNO4ZMqCs0vDFEkzgoJy0jKR1FOClf+8bQDgjTiBtuK+XFP7mvzWgkhTK8JzrMaVRnN20fWretwhlsaQajEWuakaIJG4Kp5gGcRfqaOE1Zhj1lTT+a1U58VzPfrUK/136x8y21SIvTe8aKaVBW6zKlc3PylGFvJQy0fzxoi6UVMVaUf3p6i9BF4luNPt1K9MDf+dU0I2gI48VfwoOyonhKeKQQ4pelpww7c/jfK9q62HsHEL/pwoy8sXcES3piva3vvJVkjuxN55cRepgff7lLb/yhXAii9gZHOtNXpqpCl2HnhlyRjwet6KbkmZM3HM3jC+UCvvz9MQzpogdbewl6j1OIKTBKnq7ohi6M//2+e8L396xcFX8rhR/dgbkdosMb/rFzDEFdR3vCueLvvJUPx7tyqdIgRupG7azRYhW5IVE3aUZ4Ioyx/80hhJH551xAlYap98UIO3a+YpZtpYKgWyx3F++bjCnn7vLtCH//LTc617dgT7gy7KbiNk2fPtG9i9/4e8dcwSPPBEcUzOiib8HipgquACppkRMywmag479jCV1/yh//HDM1URqqyO4SV4a9JAtnfyR9+p9rQcZ0kfinA/dpACsnVaI0VJXoUtzY+ROzSFAG9I6uy7nztwBHDbHoBdhsrF11TJSGqlenrfw2zA6+h4ABvaTrZn8DeMZqyHrV0ChXxl/HT4zoogMcg59pZvmfgz6EAVGs6LqcEGXV1GQDc0sAq9e11BKitH/wgETs/I7XlwOdNmTtqQrAY1wRi/yBzd+zZBQ17wonp2+PKcO+5IJt31rFgh41ZEuzgSi2siK7qRNAedQMyhrDyLR16Bk7j1TWGLHhNTGXLwvaeniZaNr5UwtgYhOqrkKjIHRMk4a75lBl2GcND++4vpqiSwP4IguynsgXDVNuNNEjCeKfYE0rM0KUYbcNo7yKoWiiNhkBZe9qYWiq1ZoAr2rD0tU2Y0RbJ1hMGfaaUfMH86BN6RwpSFc7AGWn4evYWTsg5aAxorXjs5Pgxc5b14AASVCkIf1NTwSWhHCQZw3RgI1zFUxAaizCjoaNne9rBFunR1HhQv8DtiFJVQ/KuO8behCxBBDdMdbZl8iPhqyxc4ZS6ZT2ppeupoKqbjRIHZW6RF2FgYbYtz4vmlTs/D/n0Ct7mlxldxOafpAcxnl8xpepADHlzjpmRHsm+iB4rp2L12ZNU627HcmYg8zCVI/AortgIL65k6sXiRdNKnY+bdguSACwbtQU//LyOUj+ItsaGSWI78e4uq8Fc1opBSrDDhIQ6LQWjSb6XKDPgYk52LuHZ3FRAwkUOpsdPjRK1kEFgmX2p7VpU7rPYFCL3aUrXkjOyYBEyp+408piybDbynVGa9Pqm1PVzhMgie2c5FF8hqrTrGZI05BhN+7152VLU9AOweBFCpYsXFN0FirnACKUjjV3WmksGfa9s23OmyZpbBNM7MFslwozfgHcB9iHukury44mI8O+cg/AtjStTEPQVFRgcXklQWdh5wwNVuVANrTPqMYZzdzdQuY0RXNr6VmQzw7S+ASdhdLdVQDTseZEY8TOTzS4ZdbXzGl6pqfQ5KabAZzb2KV3DWZwQZcuIxopdh7eMWxrWu3omYrKGQmgwaV3DT7BZWQ21XxopNh5Db2zRVvTaknOPKaQccs1uckK7qK2lfskd1opHBl242GZtTU9bKiZx0/IK6t0t0upXYONBrydZqC508rgyLCn7o5cW9O2cnecsFC7G2/I537IqV2DOaRtlvOhicXOWw/LrKVpUxIzFUvQ5LcVbCw0Zi63mYY0bz3NnVbGV4Yd3DJraVrtaJlHW8I+daw7pljeKXfPB+hVM+VDY8XOg4fDcv40OW9fRksTuYW1hxJSSzcdUB0XCQcaNUPzDryDiITh5nh5aSGaBQ0txl+4jWg8wDVErrYTFG8KcND4n4cAJCsaRYYd1TJDeBENCzSazILgukIQLRwDO/CFpXQN5hjXDcLhnq/nfyFpkBG401H7+HgxvrceTYctrfYNkqMNnUlJAh2gfUaxBmHjsIY1pdHw68e7tCFCK/uJIcNe+oxwT+CAMo3mh3+HH8O3kUtFaFSCy9hWwCOgdj4quqg0XH7o8D6MPrzRqQEfLIIyVE1nVPp5vFxnkJm9hDc7/3x0jGh0ig4mjZ0f+qjxGCE/NHdGlUY98hn4VnzmwN+uX/RQtgLqXVwi6dg7tiBP4GhysfOmbqhsJK3vBqqZ0mYPLjGNcn9K4opRQ8Wn8oEhF1FD6hjSgpoA0cilNXXAJUNyjWspTqjSYB4m/PIiVn6F/CuEXHb6sJ4uL5PjjJKmjoseLE1Khn3lZxWguq4FZRovxWwCbBwRAs77hoal8uXlunq0V4WfjjHtMhq0GnqO4Js9p4PcvRGZ0uZE4ziWOJmKzWhUSHzlF5eNc1f2xOLpuMChaeSHXnnZ5hZVRmbChwZ9kn5NYd8Li3VHC6yj4CPX5uNRwQ+GjGqXPaZBG18ZdoT7MOA4J93mdGnUNNx3sKPoaUH6CmtjJ26XSNeg/SSq44kGoKFsSXAPaer7ZC+YnkaNQdPaKGIWiMMKbc+X+DXkMp9oez7zLOgNT8c5Bk0lP/QK7sIGtxo6NGmoQCVEmBexFdt8S0rHdhdWeJU1NBVRHfdo0AojP3RPCyHHDAU80aMhvYC4G/jyrVSE3yk/+RZwhV1NlSJB1PHEH7Pa9dqDognGzs8a/wsbqznvXhBoFpNN0YP4wodqwNpXY6xxm0UvQ60F0NgiedifSNA4dWsxFfInrRHCHu4gNOn7E+SLJjNRN5g/3+oGaRqoJS0mWCYHkiYmw2792xQRrVkYM41AU1oZLpgI3uJXU5BigLEiJT9qyGsQpR1/33HchExD0QSTMGeoL3Yprb3Clhg0nch5HDsSprkVvH2/KeK7VFsDVGecro4//EwONI3UunNTYm3TafyajzBnQjte2RDGws96RE2SrwD2/BXtjaj1NbqOi1ftKBrseZip0AZBhn0HcBSdmyN1jWVsKAOueVKKhYMu0wOFGmXafQN/FYI1F21uQXztCO+yz/pe/IUGpHFl2PHaONbl11vVeIIkDeg4gfxIPN6BI6K0sQGqlt69Nz05utl8uXDSNhBmB+Y9NA7Xlfe5UTA0gdh5vMqLbM4rAZud3HKgkRv1ebt4vURB2b/zTQ1XWSIq1UA5buZ/9VXzZK0PdB5B4ASlgZ86vn4/oP6gQiul4WXYZ3Am5+dV/bYBceA0Exq/kc1r0GpuYMZCo79hkoyojiEARNOMnbeQ7Qm93W6PR/SzRx9qRrUmMBYCo4pqlU/IPcEcHMBo9KPScQsJEK3FH2Gaa62enmCODIEziGcHmhVF7SLRKKWGanqPLcQyPR0ixEvVpuJaMb0uDDRBHWcQNCBsBT460Tx9hGnKVWikIKT6yfga3BEEDA24YfDYvCFF9DRRmr6pwL/RfMTGlWPhwD5RopXyjZ3n4R8vLALdCiMS96uduIxZNFL/QMPRNGXYU4o1nSRLs3W0ewo9FprFwyfV1NDHoPHyQ1csRs+KNM2xAfqnVgNGsJAbA54QeyLnJsDQoBsGFxeYcbLLeMB8svGNMwgLPGvQRDJq0Ya4NLTzP3WLtKjoRWMTpembChJtEWe+qIUD0APSuE0LQ4tWqgR3gFJy4VIUmvNsYi2KOqI2HxSjmtixhqKJxM536Pu7ikSRoefreYK2EVpjzdankgNrmNYoUyA09FBB25wWcja6BCMoZvW1WCgK9I7tWKm/NamYH/AW6yKEjkKkvTNGAtSCBh4B3GlIgjazGrfZFSpCxpF8cA4sBzjCqerudZqEoJGcS0hrfkjLdcWgXaOOjpsDXgFJS0KhQ8YiJh0MwX1SkaBQNJX2K3ZuH1BSni4StPm8Wl+/1WgF+5BxbPoWNyMudi/JMyWjY6Mo0mqIkEFtTSm+AoN2Gl9b8ubjUtY44394twoB4MFTUoUzDU90dEyQVsaewF0hvSQUOqRB75rix/vLKLEK9rGfBI0js5TEAUsd3wow4NCYOdh0sdxX0GYaJUFXzZMZzefzs1uFVbMXA7sKsWLXDLTwNbG62ayo6JgmrWwJDpPWVKRzaND27KmZ/Wh6+BqtPL6UhkOD9NEVhYgSi6XlkohdBkRT8th3eb8fTzAsz1qY/UhSPuGVLrinySFmyIrySsKRvO0UfSmuNAZM5eMEIlPIuYx/uMJlzot6a7K/X+cjvkIs/b6iwfF0tTNl+OrYajCQuom/S/jCBknXWULVt/J0tiPS5sXMrv4mRxSHo+LzobxBkhW8+ML2pbjAjAgVHV7Dx/jaD/TrWqHBxfN9xvIsEDk6Y4hYjRKzQk6qQTWPdljhOnGMbwJ11LErNAo+MXJd/qIfCkih6itTNZ2Loj8vV0ld0BY+IltY+6wm8NZv8Zahp2NTu9fHhEzsfEL2wu4oDYERlP+lapLzYsXxnDp/ORGouf3ifftQDRRF0p17x88FbFWTS4eosOvpAtDwYDS8fIiHxkDhosyuU9LOQG2uclvhB7L5uQsZAUFpvJd2nFsNGYGJ1cchUCKwLJ4r946a12viiLemOFz8crYuNKpHssb6UoD6omEcOaWT5YkBrYelpeRWTr0tsw/qTlwJ5FqUTV+nzR9dNk8/F+EVJ/lOpFo05gvLOFKA/iImvbh0sk/RTsXSLXaPpluz7cFhB+M+mkts/LL5o1bnCzdtcsXtM6Fzn9EXwpfIJag0hrtQeF2CQ1K1sa1QxP3MB225/xToTr9983JRzrMye+YV+gdBCozyB+rdGDH0qhQJdJroAO9U7FCseTP6IN1XD5xk/vsuWJ79cbMzhuc/OBGopLBPpCT5tkKz9ovtV6k1uCcFNpEH1/9W49RHH3yFrUWOeChcowJ6F6jzFmsCtbqzowOkJTW2itTHfACHAUjpGVbH28TbbiRV2atPHBl9q5eU+3zE0mHaNaJjkm7OV8B680Gh5osW0o7M+wqBIxNpMr6wpADpS1oA+IdLSpU9H6KFzdIK9AWUYfupe9rRfbpENf2QFKZhLN5qqL88/6YGMIeh6NgrECOgdPyq4UMdGamyjrrkAgN5B99PnVnnJLj3K3z8rH09i6WKV5Km0VoLUhTEQiO5CQDxNTXExZ9YEB2UlOq0m6IFxo39qMnaZRXM7Uafl8j+q29uqJgK9Xb07ywi9L4/3xehv7Wy7ZPSMPAbMsz7UIIsaX2/8zqgzkbzd2hlNnCdKwR19sT6yCkUh2NzHpMKZFQ+S7x3rCZrHJXV6cHr1/j6YfXI/jh43aE9NnCX4Afc29OCLrpgkkALG3v30xWlCcTR5VZ72wZjYi7328H9HTgaRdk0Xuy/dF17vA1K2oP1KEBq+3o5FXC7/0WoZ5LYWY16j+loU3tYKJiu+AFEcs6+1QQjgbS2yuXlVR43fXXbciS8+Nvm6FDYklX3/oTkJqxVLjrezhNlNUrEau7XWvng4fWFtThB1PmhduzvNZpCSvPW1zc/Xyx6VlM0kervfL05HI7H7fbne9YzmgMuZ8qedbzZXut43jMjzUG/P67y4dv8SsfHw2Yz7523i2F+14fjhoxTOd8cj4s+UnjBanPdJ3aOP8t32swTEnF0m8N2+0rFRlQ=;" parent="26" vertex="1">
                    <mxGeometry x="9.810225563909768" y="395.74399999999997" width="35.53917293233083" height="30.417293233082706" as="geometry"/>
                </mxCell>
                <mxCell id="8" value="" style="rounded=1;whiteSpace=wrap;html=1;fontSize=16;arcSize=8;fillColor=#d5e8d4;strokeColor=#82b366;" parent="26" vertex="1">
                    <mxGeometry x="9.81" y="11.92" width="237.45" height="270.08" as="geometry"/>
                </mxCell>
                <mxCell id="9" value="" style="shape=image;verticalLabelPosition=bottom;labelBackgroundColor=#ffffff;verticalAlign=top;aspect=fixed;imageAspect=0;image=data:image/png,iVBORw0KGgoAAAANSUhEUgAAA/8AAAFxCAYAAAAlJxjXAAAABHNCSVQICAgIfAhkiAAAAAlwSFlzAAAI2gAACNoBH+sbpwAAABl0RVh0U29mdHdhcmUAd3d3Lmlua3NjYXBlLm9yZ5vuPBoAACAASURBVHic7N15fF1Vuf/xz9onU1um0gEEtVAQmVFkEkFARLkozlSUsQKmSdpiK22SVn8eB5qTFlotzUkjlElEDSqKV1RwxOmKF68MIjKUSUSgBSy0SZqc/fz+SJk7JXudrHP2+b5fr1LaJs/6tk2T8+w1gYiIiIiIiIiIiIiIiIiIiIiIiIiIiIiIiIiIiIiIiIiIiIiIiIiIiIiIiIiIiIiIiIiIiIiIiIiIiIiIiIiIiIiIiIiIiIiIiIiIiIiIiIiIiIiIiIiIiIiIiIiIiIiIiIiIiIiIiIiIiIiIiIiIiIiIiIiIiIiIiIiIiIiIiIiIiIiIiIiIiIiIiIiIiIiIiIiIiIiIiIiIiIiIiIiIiIiIiIiIiIiIiIiIiIiIiIiIiIiIiIiIiIiIiIiIiIiIiIiIiIiIiIiIiIiIiIiIiIiIiIiIiIiIiIiIiIiIiIiIiIiIiIiIiIiIiIiIiIiIiIiIiIiIiIiIiIiIiIiIiIiIiIiIiIiIiIiIiIiIiIiIiIiIiIiIiIiIiIiIiIiIiIiIiIiIiIiIiIiIiIiIiIiIiIiIiIiIiIiIiIiIiIiIiIiIiIiIiIiIiIiIiIiIiIiIiIiIiIiIiIiIiIiIiIiIiIiIiIiIiIiIiIiIiIiIiIiIiIiIiIiIiIiIiIiIiIiIiIiIiIiIiIiIiIiIiIiIiIiIiIiIiIiIiIiIiIiIiIiIiIiIiIiIiIiIiIiIiIiIiIiIiIiIiIiIiIiIiIiIiIiIiIiIiIiIiIiIiIiIiIiIiIiIiIiIiIiIiIiIiIiIiIiIiIiIiIiIiIiIiIiIiIiIiIiIiIiIiIiIiIiIiIiIiIiIiIiIiIiIiIiIiIiIiIiIiIiIiIiIiIiIiIiIiIiIiIiIiIiIiIiIiIiIiIiIiIiIiIiIiIiIiIiIiIiIiIiIiIiIiIiIiIiIiIiIiIiIiIiIiIiIiIiIiIiIiIiIiIiIiIiIiIiIiIiIiIiIiIiIiIiIiIiIiIiIiIiIiIiIiIiIiIiIiIiIiIiIiIiIiIiIiIiIiIiIiIiIiIiIiIiIiIiIiIiIiIiIiIiIiIiIiIiIiIiIiIiIiIiIiIiIiIiIiIiIiIiIiIiIiIiIiIiIiIiIiIiIiIiIiIiIiIiIiIiIiIiIiIiIiIiIiIiIiIiIiIiIiIiIiIiIiIiIiIiIiIiIiIiIiIiIiIiIiIiIiIiIiIiIiIiIiIiIiIiIiIiIiIiIiIiIiIiIiIiIiIiIiIiIiIiIiIiIiIiIiIiIiIiIiIiIiIiIiIiIiIiIiIiIiIiIiIiIiIiIiIiIiIiIiIiIiIiIiIiIiIiIiIiIiIiISLq40AFEvOnuzvDso3vQv34ykZuEuUkQvx7cjjgmEDMe57YBwGwMjhqwAkRrBn+OHiJbDawmtlU49zjwEMZDuMzDDNT+g5kz+8L9BkVERERERIZHzb+Up+7uDKse3g/iIzE7GMeBYPuAG1XEUQdw3Etsd+HcX4jjPxJv8xc9EBARERERkVKn5l/Kx4r2N9NrJxK5d2P2dmC70JHA+iC6DeznmP2Mp/puI5uNQ6cSERERERF5OTX/UrrMHB1thxFVfQziDwK7hY60Ze4piG+kEH+XmvG/pL6+P3QiERERERERNf9SeroW7sGATcXZqcAbQ8cZPrca7HrMrqCp9c+h04iIiIiISOVS8y+lIZutYmLth8GdC3YsuLR9bN6BYwU17hrOaX4udBgREREREaksaWuwpNysaN+WPjsbOJ+ynuXfamswu5qaaDHnNf8zdBgREREREakMav4ljK7c9lh0PnE8A9g+dJwRZ6zHcTV11W186rOPho4jIiIiIiLppuZfRtaiRWMYE88EPgM2NnSc8KwPYwVkcjTN/XfoNCIiIiKJLVo0hu0K4yhkdgDbHot3IHI7YLYDsD3mdsDZDuAGb24yq8Kx7Yb3zvDKG50KwJoN/98Hbh1YH47VGKtwrAZ7EsusIjPwBH3bPKhrmEU2Ts2/jAwzx/LcRzDXTmUs7x+qtTi3mLqeRUzN9oYOU1G6szWsGvWl0DHKh/sxjXN/GzqFiMhr5NumQbTbsN8/tj8yveWH/gKl1LIF43DRPkRud2LeSGSTMPcGsNfhGIcxDhgVMGEM9ijO3Y+5ByC+H+fuwOxWGlufCZir+Dpzp2LuLcmKxM/Q2NruJ5CUGjX/UnxLcwdRxTLg8NBRSp6xEotnM33ejaGjVIxFi8YwpvB86Bhlw9kFNLReHDqGiMgr5Nsmg7uXwVnj4fo3o3p310P4l1m2YC8ymcMxOxTYD9gfmBg41XAZcD9mtxJFt1Jwv6Npzv/hnIUO5k1H2zU4d1rCKg/R2LK7lzxScqpCB5AUuyJbR++oOcTWDNSEjlMWHJNx0Q/I576Hy5xPw5wnQ0cSEZGttOyiSVSt348d9/wZU6YUQsepKI7PYokaf4Cd6a07C+jyEamsdbS9B+euBcZhqemNHfAmnHsTZqcRGXS2/4t8+424+EbivptpymoyQFJNzb8UR/4rR7Cu6nKc7an1JcPyUSw+lnzbTBpbrwsdRkREXqZz0UQY2B+i/cH2J3b742w/GNiOOIK1d49icJ+yjIRLL9yJfjfVSy3jArq7L6v4hzfOjQfGhY4xAnYBOxdz5+Lq1tOZ+wkxK5gw+caK/xiQVFLzL351d2dY9cBsIIujOnSc8mbjwH2TfO4j9NU2MGvWs6ETiYhUlK7c9li8L7E7ANz+DC57PgArTBicRNwwI5qiVcNlqT8zE397zPdk9cqPAt2e6kn5qMH4II4Psmrlv8jnrgRbQWPrytDBRHxR8y/+dC7eldUrrwX39tBRknOPg70udIoNPkpN38EsbTuVma3/FzqMiEiq5XMzMHciLt6PApMgCp1INmdF+7b0WaPXmsZc1PxXul2AeeCaybddS5T5MtPm3hc6lEhS+oomfnTkjsL6/4iRgsYfwBaGTvAKjt2p4hY62z4VOoqISMpNwdlJ4CaFDiJboS+eBuzguerbWN5+gueaUp4y4M4gjv9OPncVHW17hg4kkoSaf0kun5uB4yawnUNH8cP9D3W1Pwmd4rVcLeaW09F2CdmsVu2IiEhlW7q0FtxnilLbrLkodaVcZYAzce5u8u25wY89kfKj5l+Gr7s7Qz63BLiYNG0hKcTZ0BE2y7l6Jo76EV257UNHERERCSaz7kwGl2f7ZxzPsgW6olherRqsmap1d9HRflzoMCJDpeZfhmfRojGsWvldoCl0FK8ctzCj9ZehY2yZHU/ML+lcvGvoJCIiIiMum41wfLaoY0SZ4taXcrYnzn5OZ24xXV064FrKhpp/Gbqu3PaMiX8MvC90FO8KfCl0hK1mHEC8/hYuW6z9ZyIiUlkmjPoI8ObiDmIfZfnCNxV3DCljEcYsCs/8kq4LS+WQaJHNUvMvQ5NvG0vsfgx2ZOgo3jl3M9NbbgkdY0gcb2B9/y/52qL9Q0cREREZMc7mjsAoEbFdMALjSHk7ikLmf1m+ICWHXkuaqfmXrXfZ4h3B3YzZYaGjFEV//xdDRxge25nq+Gcsv2jf0ElERESKbln78cChIzOYncUl7cU5V0DSZBfi6BcbPjZFSpaaf9k6S7Pb0d//38CBoaMUyY+Z+blbQ4cYPptAPHATX794r9BJREREisqN6En8tWSYOYLjSfkaRWQ36CBAKWXpOaFdiqcrO5q47oeYHRI6SnGYYXGZzvq/wkQG+m/k0vZjOa/5n6HDiIiIeLc8dxAxJ4zsoDaNFe0Xck7zcyM7bqo8D6zBWINjDbAG3DMv/bL1gVv3ynfZ8HPOHOZ2wFkN5sZgjMFZDTAW2BaYBJTK1XujcXYDnQtOpGHe70OHEXk1Nf+yedlsRKH2SuAdoaMU0fU0zf9r6BCevJF+fsySJccwa9azocNUFvdTiH8dOkXRxZTXuRgiki7GZwKMuj3rmQosDTB2eYviI/n3+j+RzcZFG8PMsWzh64hsNxy7AYPfx7wVx0HASJ/Gvw0WXc/S9oOZqckYKS1q/mXzJoxaCPah0DGKKKZQe2HoEH7ZPtT2XUd39n1Mya4PnaaC3EJja3voECIiqXXphTvRzyeCjG02k+7uDqZMKQQZv1wNRGuK2vgDOGfAvzZ8+8Mrfu2KbB19NW8ljk4EPgC8pahZXjKBKvsW2exxZLMDIzSmyBap+ZdN68zVY5byfW7WzYzZd4ZOUQTHsKruq0Bj6CAiIiJe9GcaCbe8ew9WPXgy8INA48twTM32An/c8O0L5NsmY+48HOcAE4o8+lFMHPUVoKXI44hsNR34JxuX/8oRxFwcOkZxWYGqmq+ETlFE59LZ9qnQIURERBK7IlsHTAuawdmsoONLco2tK2lqaWVg9BvA6oHHizugzdUVgFJK1PzLa1164U5Y9bdx1ISOUmTX8OnP3hs6RFEZX+OSr6T0oEYREakY60adBkwMmsF4J8sWHhw0g/gxc2Yfja1fZ23mTcAXgJ4ijeQoZC7GzBWpvsiQqPmXV8pmIwYy38BZyu+0tX5cXcr2+m+MqyWq+hZdue1DJxERERkWM0dk5yesshofDV4Ua/Y/TebMWUtjy5eIooOAXxVlDGdvZ3n7x4tSW2SI1PzLK02om41xbOgYxeeuoGHWQ6FTjAjHJAosDx1DRERkWDpzx2MckLQKcK2HNFO4pD3lEyQVaNrc+2hoPp7BVQDmvb5ZjqVLS+U6Qqlgav7lJR0XvgXIho5RfNZHtcuFTjHCPsryhWFOSBYREUnCoqSz7X1Y1AEZH1f11ZCxJg91pNQ4ZzS2fAmz0wDPtyW5SWTWfsRvTZGhU/Mvg7LZKlzm6xWwzx9wX+e8Crx3NY6XskKzFSIiUkaWLdgLZycmqmF8k6a5/6Zxzh34Wdo9jUWLxnioI6WoqfVbmJ0J+L2i0LlPe60nMgxq/mXQxLq5jNzdpwFZD5nai0KnCGR7+izlNziIiEiqRJlZJHu9asR89aUfOh+z/zuyTeF0D3WkVDW1fgdncz1XPYZ8+5s91xQZEjX/Al+/eC8q5Q5Sy+Spn1Xka11K2kfpyJ0cOoSIiMgWXbZ4R7AzE1a5mRktd774o/G7/wh4MGFNMM7XCe4p19B6MfATjxUdcI7HeiJDpuZfYKB/MVAXOsYIeJ7ILQkdIjz3Nbqyo0OnEBER2az1/fVAsq9X9qoVb1OmFIBliWoO2od87r0e6kgpK7hzgWf8FbST/NUSGTo1/5Wuc+H7gfeEjjEizC2lYc6ToWME5+z1xKN0VZGIiJSurq5qSHqwnruLxpabX/PTfbWXA88nqw04p6+laTej+V9gbR4r7kvXha/zWE9kSNT8V7LubA1xvDB0jBHyLC7+WugQJcPsAh3+JyIiJWvg6Y8Buyaq4eIlOPfaa9tmzXoWuCpR7UHvofPC/T3UkVK2tioP+Jo8chQyx3uqJTJkVaEDSECr687BsWfoGCPkqzS2ely2VfbG0Bd/HmgIHURkqy1ZsgN1616PZd4AjMXcDsBYHNsC2/PiA+14FM4VMLceZ2sxtx7secw9TeQewdwj1GT+ybmznw73mykzyy6aRBS/ESvsAm5nHBNxjMLchhPPbRtwz+PiASx6Dot7wT1GFD1OzD+p6X+c8+Y/EfY3IWXFuemJ3t94glF9125mgEvAGhnchz18cVQPzEhUQ0rbnDlryee+Blzop6C9G7jGTy2RoVHzX6muyNbRg+9TTEuUW81Aj4/9fWlzJpcvWcSnZq0MHUTkRdlsFTtV7w2Z/TH2A/bZ8G0S9I3BMi+97UYm9Db8AhiAvfT9C29vG/5/fQHyuWcx/ozjz8TcSibzR20NYkOjXzgW7GjgAGAfGNgWAPeyPunlf7Yv/IS5we9feDuLB1ur/gzkc73AIzgexdwDOO7E3J1QuEMPZ+UVli08GOIjE9Vw5Jma7d3krzc2/4N8+88g4TWCzp3FivZ5nNP8XKI6UuLs2+A8Nf/uID91RIZOzX+lWldXj0u4nK5cmF3MzOya0DFKj6ump3c+OnlWQunuzrD6vn2wqreBvQ1zh+DsICzhAV9bbwccJwAnEAFWiMm3/R5z36PgvsfM5n+OUI7wli04nEz0cYwPwsDkIo1SB+yFsRfY8S89PHCQb38U7A7gdnB/gvi3Zf1AoK/mXeTb1oeOAYBFj9HU/PfQMYYkE89gU8/2tk4PA3HnFt/K4q/hXLLmH7ZlPWfh5xBBKVWNrSvJ5/6Kn2ux34SZ2+iWFJEiU/NfiZYurcX1zCbhV9ayYO4J1kVbfgFQqRyfpHPJl2mY9VDoKFIh8m2TIfoA2ImsWnk0ZEa/YmY+rAjc0TiOpsqWkM/9AlwH43f/0YYTwtOlK7c9Bfs0uGnA5LBfEuwNwBuA9214IBCTz90B3Egc38Cq9X8mm41DJhySOPpx6AgvclwGnBc6xlZbumACxqnJirhvMHPeU1t8s8aWn9HZ/g8g2d3rsTVh1qFmLvVuxE/zP4ZLFu4KVM4DZikZOvCvElX1nApWGSeNOlvInDlrQ8coXS5D3DszdAqpAJe070K+7RZw94MtAd5L0iu8issB7wa7nlUPPEBH7vzB08dT4LLFO5LPLaLAI+AWAsWa6U8iYvBF9jyi6H+YWPcYHTmfJ25LqarKnEuy64eNTGHrrvUdbNYvSTDWhjrsTdfCdyeuI6XN7A5vtTK8yVstkSFQ81+RrFIOpnmc3prLQocoec59imULxoWOISlnhX5wR5P0cK0g3CQcX6XwzF0brkctT9lsFfncDNavvw+4ANgudKQh2Jmks7NS+rLZKpIfRPtT6ufds9Vvbb1XAcm3BlrSawml5Jm7y1stx27eaokMgZr/SnNJ27uAA0PHGBGOBcye3RM6RhkYjYumhg4hKTe4BPfZ0DES2guLf0Q+dz35trGhwwzJ8oVvYkLdH4GlwI6h4wyLsz+FjiBFNmHUhzZsAUnALR/Smzdln8f4VrIxAeP9dLbtlriOlK7qsfcCfrYfDd5SIzLi1PxXmohzQ0cYIY8wrveK0CHKyLmYleGMrJQV4/7QETz5ELjbyLe9LXSQrZLPnU4c34bjkNBRErHo1tARpMiixCsTH2H87kM/b8HZpQnHBciA0/W5aVZf3w8876VWrOZfwlDzX0m6LhqP4+TQMUaG+zJTsqVx0nI5cEymo/3o0DEk5Vxqmn+A3cH9no5c6X5ONXPkcxcC34Cyf6EZU8f/hg4hRbQ8dxDGOxPVcO6yYR3O2dh6G46/JBobwDiHxYtHJa4jpczTlY62jZ86IkOj5r+SxP1ngKsNHaPojPt5sueboWOUncg+FTqCpJzZfaEjeFaL4zqWLzgpdJDXGNzf/w1gXugonvxd96inXOymJ6zQzwArhv3e5mX2fxx1/QlvKpAS5+nqaDX/Eoaa/0pi7uOhI4yITPRlstmB0DHKj/uAZiykuFyaZv5fUEscfY+O9uNCB3mRmWNCXRfOnRY6ikda8p9mly3eEeyTCavcwIzmfw37vQf6rgWS3w7kLOlDDCll5unQ2kg9mIShD7xKcemi3cHeGjpG8bm/8+913wmdokxtw6i+E0OHkFRLY/MPUIez68i3lcaVeZ3tX8GRspU8puY/zdb3nUPiqz9taAf9vdrM7BqM5K8fjIPpyB2ZuI6UpghPM/bOz9kBIkOk5r9SDBROAZf+A92ML5LN+jmJtRLFnBI6gqRYIU7bsv+XG4dzP6AjG3YpZz73X0Br0AzF4NBJ/2nV3Z0B15iwyn00tPwicRbnfCz9hyjxFgYpVabmX8qbmv+K4T4QOkHROe7iqZ4fhI5R1px7L93ZmtAxJKUGr/v7T+gYRWMcALVtwca/9MKdMK4AT8tSS0cP0Y7+7teW0rLqwfdBwjvPnXXhnCXO0tj8PzjuTFzH7KN0LpqYuI6Ulu7uDHhq/s3XwYEiQ1MVOoCMgMsW78j6vrel7/Xgqxif16x/YtuyqubtwG9CB5GUMu7zeOXcc+CeBet/6ccMMHiyfTUwFtjB01hbx7lGOtu/QUPzyC9TX59ZgGOn4g9kD2PR33D8E2fPgnseizfcruJqwY0GqwXGAxOAnYE3ADsObzz3lw1XbEkq2bSEBXop2JU+kgBgXAosTVilhrhwNrAweSApGasemATOU+8Ua+ZfglDzXwn6178HXCZ0jCK7jYbmG2lsCZ0jBareg5p/KZbB6/62pvnvA/4O3A38A9zDED+GRY9RlXmKx59/dqsO9uzKjiaungzRm8EdjXEscCDFexoaYbacbPaQEX0YuSy3H46zilT9IcxuwPEjBvpuZWZ2eKddd100noGBvXG2P7h3gB0NbtIW389pv39qdS3cg0L83mRF7Dqmz1vtJxCAXQOuHUh2AK7j05gt8rIiQUpDZHsTe/rSYdHTfgqJDI2a/0oQ2wmp3+5v9gV9gfUlPgGYHzqFpNbGDv3rB+4A92fgVtzAn3mi/x4vt3bUZ9cBd2349j0AuhbsTSGqBz4FbJd4jNd6KxNHfQAYuW1Ijv8H+HzIa8CNxCxkesstXirWX7AK+N2Gb4OHs3W27YZxIriTgHcBYzbynuXY/P8fUCIr0ezh0Ak2KY4/TdItqOaSHfT3ao2tz5Bv+y64MxJW2oOuhe8GbvYRS0pAwb3Z22PjaOBeT5VEhkTNf0Vw7widoLjcH2hquSl0ihQ5kK7c9tS3pHdvtoQzuOwfYCXmrse5HzJq3Z+Zmu0dsQz18+4BZpFv+xK42cAsNt50Dp8xl5Fq/i+9cCf6+bDHij+hQDMzWpLvfd6ShtaHGHwQsJylS2vJrD0G5z4AnAqMA8DKcOZ/VO+RI/oxXY6WLq3F1iW8lcLuoKn1D34CvUzsLiMiafMPZp9GzX96OPdOT5UK1PWn9fYbKXFq/tNu8EVhaVw/VSyFOBs6QspEDNjhgB6oiH+x+zmReytNc/8aOgqNrc8An6ej7SqcuwI4ylttZ2+nc8E7aJj3e281N6U/OpvBMw6S6gXXSGPzFR5qDd3MmX0Mft65ie7sbJ6q/Si4qTS1rgySR4qrat0pDJ4LMXzO86z/C5qaf0u+/R4ceyeqY3yQjoU70zT3356SSSjd2RpWcbynag/r4aCEotP+066QOSJ0hKJy/JIZrb8OHSN1oujtoSNISs1o/ldJNP4v19R6P0/2HofDzzVfL7DoNK/1Nj3OBz1UWQ98JFjj/2pTsutpav0WTS3vCR1FiqYh4fs/T3/vN70keTXnjMgu81CpGhcnXN0gJeHpUccweJisD//wVEdkyNT8p13MwaEjFFXMV0JHSCVL+ceNyKtlswM0tHwax9c8Vv3whquhimdpdjucHZq8kP0/Glt+kryOyFZYnjsIODJhleuGffjk1ui3qxl8KJbUuWSzer1d7ga3cPjh7C/eaokMkZb9p53ZASk+7O+nNLX8rjil436MB4tTewNnrwfnY6luEdiBoROIBDFu8mdZtXJP4H0equ3MqoeOopi3Z1TVHU3yr+Uryey42Eccka0Su2mDZ0omqcGVXrJsysx5T9GZuwHjYwkr7c6E2vcAP/URSwLIt03GPJ6rUnDaVinBqPlPO+fS28SZfblotT/12UeBNxet/uVLJtPbd1fR6ie3K8sWjPN7fZJIGZgypcCyBWcRRXcxeD99QvG7KerVmbZv8lsL7evU1/d7iSOyJUuz24El3RLzAE3Nv2V6ka/3jW0FziVt/sG5etT8lzE3D3+3qayheuwfPdUSGTItQ0qzFe3bgr0hdIzisBtoav1z6BTD1tM7n1J/+OaifUJHEAli+rzVmJvhqZq/QwQ3ynl4SFml5f4ycqrqziDp3mnnrhqR630n7HEzuEc9VHo/l7Tv4qGOjLTOtmMZvBbWD+MXetgqIZV28yHJrKvejcz6FK75N4OqL4VOMWyDs/6fCB1jixy7MXgft2wVayKf+2joFH7YOhpbfV1pVJ4a536PzvY/A0n30x9Gd7aGKVkfe4c3JultLgNktvu7lyQiWyXxkv+YQuZqX2k2a8qUAh1tV+Lc5xNWqqKKc4DirVgU/zqy22DuUpIvr3qJM60AkaDU/KdZ1cCkpFvqSpP7Lo1z7gidYth6eufjXOn/23Nu99ARysyuG76lgHsudILgnDM629ow9/2ElUbz5Oj9gWId8LRdwvd/TrNQMmLyC4+GeP9ENRy/YvoFD3tKtGVx1RVkCvNJulrW7Fy6uxcwZUrBTzApqmy2Clf3bWBPj1V7gOs81hMZMi37TzXbLXQC/6xApqp8n5xfvmQyzpX+rD+A2aTQEUSCinb8b4wnkteJ9/WQZlO2Sfj+JXroqKSSs6TX+4EV+aC/V5sx50Hglx4qvZFVK0/0UEeKzcwxcdQl+Dn49eV1v09j6zNea4oMkZr/NDP3utARvDO+Tf0F94SOMWzlsNf/JdqfKJVtcEb8B4nrONs7eZhNsbqEBbahI5v0AYLIlnUumohZ0q1Ra8j0Jl2NM3SOFZ4q1XuqI8XSna2hs/1qsGneazuWeK8pMkRq/tPM4gmhI/hlBTKZBaFTDFs5zfoPGh86gEhwkd2cuIa54h2eaa4ncY2q0Tt5SCKyeXHhTKAmYZXrqM+u8xFnSOp6fwA87aHSSSxtf72HOlIMHQt3ZlXdz4DTvdc2bqax9TbvdUWGSM1/mjnGhY7g2ZVMm3tf6BDDVl6z/mCp+/gRGboo/oOHKsV7se9Ym7jGgL3VQxKRLTkncYWRXvL/gqnZXsyu8VApQzVTPdQR3/K503Hx34Bji1C9QIY5RagrMmRq/tPMsWPoCP5YH5nRbaFTDFvXwj3KbNY/ZR8/IsNUP/9xEs/4WTFn1tckruDsZA85RDatc8E7cCTd/nIfjc2/95JnODLuci91LD6HbFavv0tFfuEx5HO/AL4BRXrd46yLaS23F6W2yBDpk0+6jQ4dwBvjcurPfyR0jGEbKMyjnGb9AbDRmKXwqkiRIbs7lhE1qwAAIABJREFU2bu7Yjb/Kz3U+BidX0nJTRVSkizyMOvvrsK5cHcYTWu5HeN/kxdyk5hQ+57kdWTYrsjW0dH2cfJtt0D8a+BdRRxtNdW1Sa+KFPGmzJoRGRJzNQnv0i0VvUS1C0OHGLbLl0ymt6+8Zv0BcI7rvlgNFOt+cpHyYPwNx1EJKtSxon1bzmn2f4Wica+HG6hHY9WXYXZS0OZK0mlF+7b02SkJq8TQf7WXPEk4WwHukOR13HmA7nsfSVdk61hX+06c+xA9nIpj7IiMa8zm3Nk+zosQ8ULNf6pZ0oN1SoRbTsPsx0KnGLae3vk4V57/1p6iBjX/Uumcezjxg9T10SjAf/PvuNNPITuR/MIGIO+nnsgGffHHwSW7UcL4BU2fe9RTouHLuG9R4GKSr6w8mY6FO9M0998+YslGLM1uR2bU23DxYVj0TnrsWNwIr4g1umhqCf/QSuRlyrMhka2Vhvub1+Kii0KHGLauhXtQiMtw1n+D2u1S8gBJJAlLvq8+KiS9km/jrPe3uLp+fHy+d7aUfO5ZGluuTR5M5AUu+ZL/yF3lIUhy9S3/IZ/7LnBmwkrVRPHZQC55qArUlR3N+lE7kInGYwM749xEHK/H3CRgN7DJwJ5gETgIs6DpVgqjzw8xsMjmqPlPt/7QATxYRsOcJ0OHGLaBwryynfUH6FujWX8R+E/iCv1xcZr/puzzdOb+iPFOD9UywNV05Ko0WyVeLMvtBxyRsMpzRD3X+4jjhbkrcZa0+QfjHMzaU7/VJqKbfG64V5Juz+D5ZNsx+PlpG6CaApAxoABuw74ne/E/peBxbOBjzJzZFzqIyKuVb1MiW8GtL6FPhMOxhpqaJaFDDFvZ7vV/mQla8i8Cbk3yz6VR8VZimX0DnI/mHyCD4yo6cycz4M5nRvO/PNWVSpThnOQvQ+z71GfX+YjjxVM9v2Fi3UPAbgkr7cny3HHALxNnKm37hg4wohz/pBAfz/QS2KYishE67T/NnJV34+bc18r6kJSe3vmU9QM2M075QhpWj4gkFCdvPDKF4t2ckem7FnjWa03jY2TsbvLtn+GKbHFWLUi6dWdrME5PXCeOvuEhjT/ZbAz4WRlj7jwvdaRE2MOYHcP0efeGTiKyKWr+08xYGzrCsBlPE9nS0DGGrWvhHjhX3rP+uHWpX44okgaDs6LF+Hy5PdgSeuoeIJ+boYcAMiRPjfoAMCFhlcdY1fMrH3G8ykRX42dp5Yfpumi8hzoS3t3E1cfQ2Orj+lWRoinjWUnZMnsaD3dABeHcEuqbk++zDaXc9/oPWh06QHlx82hsbgudouJks1VMGD2eqH88ROOBcZgbBbbhVOdoNMTrsKiAYzVR4QnWZx6ldocnqK9Pz8oW612EqzsPeF0Rqu8CLKWnroV8rpPqwqWcN/+JIowjaeJIftAf7toNM+2lpX7uA3TmfuvhrI1aCgNnAot9xJJgrmZtppE5F5TvpJtUjHJvTmTzyrV5W0VtGV83lYa9/gCubD9+JI0WLRrD6MJBRO5gjP02nOa8B/BGiKuxzKve4YUHn8YrTnuOI6gyKDxj5HNPAI8CdwC34+xvUHVXWR4y2pR9no62WTj37SKOsgvwZfoznyef+y5GB00tfyjieFKuunJvpGDvSVynYKW15P8V7CovZ20Y52G2RCvtytI6cNNpbL4idBCRraXmP9Uyq6D0HphvkbNFnNPi/z7skdLTOz8Fs/5gav4loCVLdqB2/bFYfDzOHQeFvYEM5u31sQN23vDtUADMAQXI51aD3QXuDuBWsPJY7t7U+h062k7GudOKPFIN8EkcnySf+zvYVRSib+hwQHlRgbNJvrX0dma03OkhTXHURNfRZ0uBMYnqOPamc9FRwG+95JIR4n5KpjCL+nn3hE4iMhTl36DIpjl7vPwO+3ePE/V2hU4xbGmZ9QfAHgudQCrMZYt3ZH3fx4BPQt9RQObFa5xG1jhwxwDHDP6wjLZPFfoaqa47EOOAERpxH3A5MnYh+dxNYFcwvu+HTMmW94GzMnzZbARMTVzHuCZ5mCI6p/k58m3fB3dG8mKF81DzXx6Me8jEn2XavBtDRxEZDh34l2ruodAJhsxZrqSu9Bmqsj/h/+Xcw6ETSIXoyB1FPvc91q9/HFzXhsb71ev4ZWvMzK4hHngfMNKz8Bngv8B1s6ruUTpz7XS07TnCGaQUTKx9F8mvwSsQu2s9pCkux5WeCn2MJUt28FNLiuR+HI1UjT1Qjb+Us5Q0KbJRA1UPkymjyRfjUQZGXx46xrClatYfgIdCB5CUy7d/CKwFODx0lFRp+tyjLFtwHJG7CdykAAkmYszFuTl05n4JfJ1xvT/QaoAKYZydeLGM8cuy2EbyRN+vmVj7sId/Z6Oo6/sE0OkjlnjkuAVzS3iy54aSPHxSZIg0859m0ZoH8bhBtvjcAmbO7AudYthSNesPFOIHQ0eQlOpY+BbyuV+BXY8a/+KYPu9erHA0jpB7ph3G8Rjf4am6R8jn/h9LFyS9+k1KWVdue5z7SOI6kSvhg/5eJpuNMa72Uss420sd8eERzF1MHL2NhpZjaGz+gRp/SQs1/2nWlH2+bJZuGw8zoac8vthvzOVLJuNcmmb9YWDU30JHkJS5IltHZ+6ruPg24NjQcVKv6XOP8nzm7eC+EzoKjp2AL1IVPUy+vZNlC/YKHUmKYIApwKiEVdYS91zvI84IuRq8nLB0GMty+3moI8OzEscSovhIGpp3o6n5AqbP/UvoUCK+pWeWUjbO7C6c2y10jC1yjOWpujvpyBVzjH/Q2PKBotROywn/LzD3T2bNejZ0DEmRZbn96OVbI3gQnQDMmbMWOJV828/BLQa2DZxoFNg0oujT5HM34OKLaJj3+8CZxBfnZfb6+sHJizLR1Ho/+dzvgaMS13JuKnBB4jqyNR7A+A2R+zWR/Yb6lkde/JVp8wLGEimu9DQrsgnRHWDvD51iK2yHY7uijuBYW5S66dvrD5HdETqCpEg+9z6gG2N06CgVq7H1Mjrbfo65PPBfoeMwuPLwQ1j0IfK5X2HuyzQ1/yp0KEkg3/5msCMT13Elfsr/xpi7EmfJm3/sdLq6Wqmv709eSzZYC9wN3IHZ33DcSXV8J+fNfyJ0MJEQ1PynnUNLloqtt28eafu35CJ93Igfne2nYXYFUB06SsVraH0IOIlluQ8ScTGwR+BELzgOZ8eRz/2YOJ7N9Hn3hg4kw2CW/KA/eJxxk3/uIc3IKvRcR1XdUkj4gNOxE/3PnAT80EuudFsD9gy4Z4BncKwGHiO2h4l4BKJHiQYepX7+46GDipSSdDUs8lqZzB8o9BuBLstOvcFZ/0+GjuFdXPhD6AiSAoON/9XofJnSMr3lh3R13Ujh6akQfQ7sDaEjbfA+ougEOtraqNrxQs1+lpHu7gyrVnq4757RrFr5J/JF3AJYPH4OWM4wlVQ1/zYFWDnsd4+sh9j1ApCJeyhEvYzfYw1TphQ8BRSpKGr+067+glV05B7AofuWiyGNs/5YgYz7c+gUUuY6ckdhtgI1/qVpsLH+Ol1dVxA/82GMBkrjEMYanPsCA8+8j3z76TQ2/yN0INkKTz1wAs7t6qHS9sDbPNQpX8ZJXHrhTqlZlh67u5neogOERUqEXpRVAodmcYuha+EeQPpm/Z27g/qW/4SOIWVs2UWTcFwP1IaOIltQX99PQ0s3jS3HEcX7YbYMWBM6Fo5DwP5EPlcK5xPIlrjo7NARUqSagej00CFEJJ3U/FcCs5tDR0ilQtxK6mb9gdjp40WGz8wRDVwGjB+hAR8G91Oc5YEvYHwaF51MFB8JdgiZeB+wPcD2II7fDHYIcXwE2AkYH8C584HFwPeA24DyOWXct2nz7qapdQbWuyuOaRD84M/tgR+Rb5sWOIdsTr5tLNgHQ8dIFdPDFBEpjvQ1LvJatbU3s76vAC4TOkpqpHWvP4DZTaEjSBnrzJ0D7t1FHGEN2A8xfkxU9Ssa5jzptbqZozO3O7E7gIjDgFOAN3kdo9QNXrPWBXTRueAdWNQIfJQwKzky4PJ0tI2iqXVJgPFlS5w7FaMudIx0sf3pbD+MhuZbQycRkXRR818Jzp39NPnc/wKHh46SGqnc6w/Ac1SP/WPoEFKmlizZAfouKk5xdxcWX0xf7XeYPbunOGMAzhmDh1OtZPDQrfl0tJ2Nc1cUbcxS1jDv98Dv6Vw0CyucC25agAMCHc4tJt/+NI3NV43w2LIlxtmhI6SS2dmAmn8R8UrL/iuG3RA6QWqkda//oJ/qhG0Ztrq+aQwu1fbpAcxOpWHugTS1XlnUxn9THP8c8TFLTcOcJ2lsWcCTPZNx9jHg1yMfwrrItx8x8uPKJi1fsC9wWOgYKfUJFi8eFTqEiKSLmv9K4equA/NzDU2lS+tefwDcd0InkDK1dGktxkyvNY0uMr0H0tT6nQ0z8hJaNjtAQ+v3aGw5Dlc4ANxlwPoRGr0W7Jt0ZZPdpS7+xJmzQ0dIsR2o7ftQ6BAiki5q/itFw6yHcNFtoWOUvcuXTCa9s/7P0Vutw/5keKrXfRB4nadqBbAGmlqmUZ9d56mm+NYw/y4am8/DDUxm8NDEkTgscTKFui+OwDiyJdlsFZhOpS8qNzV0AhFJFzX/lSQ2zeomld69/gA/DLKkWtLBONlbJbNzaWxd7qmeFFvD5x6jseWz1NRMwuyLwHNFHvF8Ott2K/IYsiUT696Lvwd+sjGO4+nKvTF0DBFJDzX/lcTia8D6QscoW+me9YeBuDIPNJPkurszgK/72Ntoar3SUy0ZSefOfpqm1iwusyfQARTr/JBqLGotUm28bJFbl9qHxC/jzgqdoAJEDLgzQocQkfRQ819Jps9bDU4H/w1Xumf972NG6+9Ch5Ay9eT9hwDjPFS6jSd7v+ChjoQ0eDjgdKJoP7D/Ls4gdjZdF40vTm03kLhENCbd5xLk28aC+VrtI5vj7MzQEUQkPdT8VxorXBY6QllK9wn/4OxyHagmwxa5A7zUMWaSzSZvvKQ0TJt7H42tJ+Pc6cBqz9VrKAx83HPNFyRfsTDAGA85StnHgbrQISrEXixf8PbQIUQkHdT8V5qm+b/CcXvoGGUn1Sf8s5aCXRk6hJQx5/b1UOV2mlr+4KGOlJqG5m9SXdgPuMlz5WI9kE3e/FetT3fzb5Fmo0dSnNGft4h4kdZmRjbLLQVbETpF2bh8yWR6+9I7629uxeCWEJFhMvZLXMO56z0kkVJ13vwn6O4+iVUru4BzPFU9jI7sNjRlfd8y4OGsgqr0LvtftmAvnB3hodI/wN3hoU4Js0OB3TzU+ThLl36GmTN1bpOIJKLmvxKN6/kOq+q+gk7p3Trp3us/QG3mktAhpNzZzuCSlYjjP/nJIiVrypQC2eynmVi3A/BRDxWrcLVHAD/3UOslZmtxST+eU7zsP4rOIPE/eAA3l8bmdJ9DlG/7NLguD5XGkuk5Gfiuh1oiUsG07L8STcmuBy4KHaMspP2Ef+ybnHvBw6FTSLlz2yYuEXGPhyBS6rLZmIHeT4H5+bzj3CFe6ryy5rPJi9g2yWuUoGw2AvNx+vxqxvf81EOd0lZT+11gvZdaOvhPRDxQ81+pRvVeCjwWOkbJS/Wsv/VTXbUgdApJheSNTuSe8ZBDysHM7BqMZi+1zO3upc7LOUve/Dvb1UOS0jNh1DHgJiUv5K7bMBGRbufOfhrM11kXJ9K5aKKnWiJSodT8V6qp2V4cudAxSlraZ/2NKzlvzoOhY0gqJG/+x072vW9bStmEPb4LPJS4jpn/5h98PIh6o4capSfyNfvsrvVTpxy4b3kqVI3F6X1NIiIjQs1/JYvGXg7cGzpGyUr1rD/PU1X3ldAhJDWSz+A9c3ethxxSLqZMKeBj/7Jz/s+usWhV8iLR5OQ1SsyiRWMwH2c12MM0zPld8jplwnpvANZ5Kqal/yKSiJr/SlZf3w+FOaFjlKS0z/rj2qmf9XjoFJIaaxNXiMekc4+0bM6vk5cw/wfrxfwzeRF7S/IaJWZM4cNA8vM94FqcMw91ykNT9nlwP/JU7a1ckjvAUy0RqUBq/itd4/yfAOk/dGeo0j3r/xCjer4WOoSkSvLm38XpXCYtm5aJkh/yaBThSr3Cox6KvImObLoeaBl+Zp1j900vdcpJbL6W/kPG09+DiFQkNf8CNTWzgd7QMUpG6mf9mcXUrP6+xR/Hc4lrmO3pIYmUk3XVqxPXcPjfLlK93sPMPxGu7mgPdUrD0vbX4zjeQ6Xbmd7yNw91yks8+qf4OUsC4DS6uzOeaolIhVHzL3Du7Ptx6NT3F6R71v86Glt+HDqEpIx5OLgttrcnDyJlpeY/Ax6qeNpL/TL12XUYTySuY3aihzSlodpOx8trRqu8WX+AmTP7gO97qvY6Vq18j6daIlJh1PzLoCd6LwL+GjpGcOme9f8PmdoLQoeQNHIPJC/hfMwqSlmpGuuhSPJVJxvjSD477aIPp2aG1s+S/5iByN/y97Jj3/ZYTEv/RWRY1PzLoGx2gJipVPry/zTP+jtm6JA/KY74fg9F9iPf9jYPdaRcZKr39lDlPx5qvJbZXR6KvCEVM7QdbYcC+3iodAszm31sqShP4/f4FfBvT9U+SFdue0+1RKSCqPmXl0xv+RvOvhA6RjDpnvW/hoYWn7MOIi8T3eGnjvuMnzpSFuL4uMQ1nIdVJxsv7KH5ByANN+p4mmWu0CX/L5gypYBZt6dqoyjYKZ5qiUgFUfMvr/RE39fA/SJ0jCB6e1tJ46y/8SADvWqqpHgyO9yGn+XXn9Tsf4Xo6qoGd5qHSv/wUOO1jD94qnQcHW3lO/vfna3BuU94qNRHX913PdQpb87rtgct/ReRIVPzL6+Uzca46CzgsdBRRtTlSyZ7eiFaanqxwieYmV0TOoikWH19P/A7D5UicNeyot3HXeJSygaeaQSSX+8Ye9ibvzHTW/6Gw88Sdee6WJrdzkutkba69n3AOA+VfsysWc96qFPeGub+CXjQTzF3FPm2yX5qiUilUPMvr9Uw50kGBj4O1hc6yohJ66y/s5lMn/+X0DGkApjd7KnSXvTZDam7I72YOhe+n3zuMjrajyObLf2v653th+Fo81Appirzaw91Ns74madKu5EZ9S26szWe6g1Nvv3NmLlhva85P7PL5ip7yf8LnDOPB/85TwcxikgFKf0XCRLGzM/dCswKHWNEpHXW36yLhtYrQ8eQClETXwv0e6p2LFHdb1i+8E2e6qWbxccB5+Dsl0yse4R87mKWLTw4dKyNyi88BrMbgVGJaxl/of6CVclDbULMj7zVcnYSq+pu4LLFO3qruTld2dHk288in/st2D10tO879BoXjQdO8pDmWUb33OihTjoUnL+l/86dMewHOyJSkdT8y6Y1tl6GRUtCxyi6dM7638RTfZXx8EZKw3nznwCPzZJxMHH8f3S0falsl0yPGHf4y36wKzCbKL6Njtzf6Wz/PF0L9wiV7EUr2rcl356D+Gb8LCMHxw+91NmU6rE34u90doD3sr7vL+TbP+Sx5it1tB1KR245hbrHwa4EjgIgs+H7oYgLpwI+Vit8j6nZyr5J6OVmtNwJ3O6p2mQ6Fw3971ZEKlbaGh7x7al1rUyo2w3Hh0NHKYrLl0ymty9ds/6Ou4k4jWx2IHQUqTCRW05sH/FYcQzOfZ6quvPpaLuajF3LjnveypQpBY9jlLdstgrsrRv9NcfemH2Jgn2JfO5POH5AIbqJVev+SjYbj0i+ZQv2wrkm+uxswOdDnH4yhRUe671WfX0/HbkrcbT4K+omgV1PPvdnnC2nYD9k+rzVwy7Xna1h1ejDofBfEJ0Mtv9G387sHUDXkGrHdhY+5pS15P+1jGtwHOSp2JnAb/3UEpG0U/Mvm5fNxixefDaj1o/HODp0HO96e1vBpenfwUPUuJM4p7k4d1+LbM605pvpzN2C8U7PlbfDuenEbjqrVq6io+1nRNFPcHYXtb3/8D6r2NVVDf95IwN2EBEHYHas1/o+7VR7AMborXjLwzEOJ4rbmFj3JPn232DcThTfTcydPNW3MvEDge7uDE8+8npc/xFEvBNzxwD7gpcW8lXc96mf/7j/uq8exi4FdwH+Xy8dirlDidyldOb+CtyGcQ9mT+Oip8E9A4V1AFi0HS7O4NyO4HbGbCec2x1sf1axN8TVg3/EtrnfyDuGlG75gn2JOWTYv7sXh+WfPNnzm8R10iZ215KxHJBJXsxOYfHimcye3ZO8loikXZqaHimW2bN7WLToA4yJfwx2ZOg43qRt1t/cE1RXvZ9zPvuv0FGkgplrBvsDRWn4ABiPc6dhdhoG9NTF5HMPA/cCq8E9D/wHrAds3UvvFo19WY0I2P6lzFaFs/HgdgV2pfDMToDbYj9VEtxhw3iniWCn4DgFc4N/UxPr+snnnsLxb2L3byJ7EnO9wOCDROM5XDyAcw5zO4BlwG0HcS24NwK7sWrl64kYbESL++fWT6aQLeoIL2hsXUm+/Uqwc4s0QoRxMDB4RoN74YPOePGfkNvw/wYv/sHakP+AJ3NJ+y7MaN66rw9x5kwvf4nGt0dslUk5mdH8L/K5XwA+roHcntq+DwE+rxEUkZRS8y9bZ86ctVy2+COsX38TcGDoOF6katbfPUUN7+G8z94bOolUuMbm/yHfdg24M0ZoxAjYfcM3XtmwvPz5w2YaGffqty0jMYd5il4N7IKxC85e2WjCS39Gr/j5lzWoI8mxjPp594zYeNb/JVzV6UDdiI1ZDFV2FNC9xbfr7s6wauXpXsa0SEv+N8W5azDz0fyDi85Ezb+IbAUd+Cdb79zZT9NX+27gT6GjJJaqE/7dv+mP3st5zX8PnUQEgIybATwUOkZFcBy+5TdKlfvp782O6IhNn3sUWDyiYxZDbFu39P/pB9/F4MGRSf2Nprl/9VAnnZ6Pvg+s9VPMTqDrwtf5qSUiaabmX4Zm1qxnWZs5EfhV6CiJpOeE/0fIuOM4f85doYOIvKi+5T8YZwA6dLKYVrRvC+wTOsYI6iHiY8zMrhnxkQdGfwnsjhEf16fIbd2p8IX4LE8jXuupTjrNmbMW7PueqmUYyKRkQkNEiknNvwzdnDlryfR+GOyG0FGGJS2z/o7bydQeTf3cB0JHEXmNppbfYZxDGeyaL1u9HELlfB0vYDaVaS2+rkgbmpkz+4jcmcD6IOP7YBy04YHRpq1o3xbnfNzuYzhT878lxjXeakWc6a2WiKRWpbxoEN/qs+toaDkF574cOsqQpWHW37mb6e89nvpZxT/tWmS4mlquxrmZoWOkVmSVsuS/gHNTaWr9TtAU01pux3EWUK4H2GXo54jNvsX6+BTYqtsjtuT3NLQ+5KFOuj3V93PgMS+1jAPobNv4tZ8iIhuo+Zfhc85oaP4yjvPB+kPH2SrpmPXv4ImeDwZZ+ioyVA3Ny3A0oi0A/hmHho4wAp7H3BQamr8ROggADS3fBmsJHWPYCvHm9/2br4M6TQf9bY3BmxA8HtTnfG3ZEJGUUvMvyTW0dGKFE8CV/ix0ec/694I7j8aWWWSzaqSkfDS0dGL2PuDZ0FFSxTGca/7Kh3EP5g6jqdnXvmg/GlsXgZtHOW5p2dy+/8623YBjPIyyntiu81CnQmT8PdgyPkFXV7W3eiKSOmr+xY+mz/2BzMAROG4JHWWTjJ3LeNb/Pgo176Cx+arQQUSGpan1JmzgQBw/DB0lFS5p3wXj9aFjFMkAjiXQeyhNJXqLSWNzG45Tgd7QUYbEOIJsdhMPwKMz8HN348+YPm+1hzqVoXHOHR4Pk5zIwDMneqolIimk5l/8qZ//ONOaTwA+i5XkoUjjKcdZf7NvYr2HM2P2naGjiCTS9LlHaWj5EM4+AtwbOk55s3HAg6FTFMHvsOhQGlpm05R9PnSYzWpo6cbZkUA5XWf3OONGTXzNz5o5zPws+Tct+R8yc/5m/3Xwn4hshpp/8cs5o7HlEuKBY8H9I3Sc8uaewtnHaWqdWvIvgkWGoqH1esZP3hc4A+Oe0HHK0oyWO2lo3gMXHwV0AqtCR0rGfoOz42lsObqs7oZvaP0/MmMPA+YDPaHjbEI/uOvATqCheS9mNP/rNW+Rb3878CYPYz1HVd+PPNSpLLG7Fih4qWWcTL5trJdaIpI6av6lOGZ87n/J7HAw2PwSXQVQ6r7HQOEtNLReHzqISFFMmVKg8f+3d3chcl5lHMD/590km1TbarOlMUTMhxXqhdTa3igVqRQtBQsisQqCUmHJxgYaiUkqyFxIyUdN0Fg1QqlIvakVQfCrNOZGEWIJRVpRatpVaNlkk1Rr06TZnfd4sVup2NqkO7s7yf5+MMzNcM4zwzAzz5n3/M+2BzOy9b2p5aYkD6Z/m6fz0U3yl6T8OKV8LaV+MgPNu3N04k89n6mUmg13/y4j20YytHZFam5Mys6kPNHzuWbHiST70jYfyMj2j2TD9t/Md0FvyvDwREa23ZParE1yb5J+WKx9MSUPJ/lcUq/KyNb1Gdn+aEp5vZyCXv1b/NMMd17q0VgLx51bn0tNr97/g0k+3aOxgIvMhXcJNBeO4eGJJLvzzd2/zJLuvtT8/5RhkuSp1HpXNm5/ZL4LWTAGByeT070Ip+rPvcn9bqoZOZjkYL7V2ZjFgzenlluS3JJk5fwW97rGU/O3NBlNW6buU0bTbZ/J2SVPZ/PmuV/EWL++m+S307dt2bd7TRa1t6bWjye5Mcllc17Ta3s6pf4qtfwik5c8mk2bXp7vgnpm41fGkmzJt+/Zkab5bJJPZCpAb64C2EaT8khSf5ZlZw7kC51zzyNo0qSWmX8ONt3vzXiMBavuSZpehaJeMeMRav6e0oP3RJlwMtFcappDqVkyozFKO96jauhDvQh2gXPznR23JtmbZPU8V9KPXkwpezOxbNdF9WMYZmL/rnVp2xumj7S7NilXJ3VVZue7659JxpJg7mTkAAAEdUlEQVRyPKnjSTmW2h5N0xxP244nzVhqPZbTA6PZsuXULMw/ex56aCDHj1ybmg+naW5Ire/J1CXes70g8HxSn0gpj6XmsdR6KBu3/3WW5+wv+3dcnsny0ZT2+qR5f1KvS/K/e+7P3+nUPJnkj2lyKG09sOBeWwDOm+afubVnz7IMnt2YUr48HVi10J1JLd9Pt7szm+620gpv5IHO0pxaui4DWZWUobR1KCVDSVmcWt+WUv77e63mXymZTK01yfMp9WRqczKlnEi3PZlFkyezfHI86zsLb3vSfbtWpOTqpLsitbkyTZanbYeSLE9pliT1lX3DA3n1QkEtZ1PqKwsgL6RmPE09ntocT6ljaeuRDA4eyRc3n5zjZ3Rh2H/vULp1ZdJ9Z2pWpuTKpFyWqa2Yl//ncbXWlPKPpG2T5lhKHUttns1AnsvbV49OX+0BAOdM88/8uH/npTmbTanZ9KofmAtIfTmpD2RwYEfueI3wJQAAgB7S/DO/7uu8NWXw9qTcld4kDfe7F1LrD9MMfiMbNj8738UAAAALg+af/tDpLMpVg7elljuS3JSL7ySKx1Nyf9ozP3JsHwAAMNc0//Sf7+5dnfbs55P6mZSsme9y3rwynnR/krb+IF/66uH5rgYAAFi4NP/0t31fvz4Diz+VWm9Lybr5LucN1XI0qT9PqQ9naN1BgUwAAEA/0Pxz4di/a11q/VjaenNSPtgnQYEvJflDSg5kov46d257fPrccgAAgL6h+efC1Ok0GVp6TZr6odRyXZryvtR6TZK3zN6kdSKl/Dm1Ppk0h9N2f5/Fyw9neHhi9uYEAACYOc0/F49Op8k7LlmTiYm1GRhYnba8K6VdlZQrUspQah1KyvQZynVZkqVJnUiaqQC+mlNp6onUjCc5kTRjSTuaZDTNomdSLn1Kow8AAAAAAAAAAAAAAAAAAAAAAAAAAAAAAAAAAAAAAAAAAAAAAAAAAAAAAAAAAAAAAAAAAAAAAAAAAAAAAAAAAAAAAAAAAAAAAAAAAAAAAAAAAAAAAAAAAAAAAAAAAAAAAAAAAAAAAAAAAAAAAAAAAAAAAAAAAAAAAAAAAAAAAAAAAAAAAAAAAAAAAAAAAAAAAAAAAAAAAAAAAAAAAAAAAAAAAAAAAAAAAAAAAAAAAAAAAAAAAAAAAAAAAAAAAAAAAAAAAAAAAAAAAAAAAAAAAAAAAAAAAAAAAAAAAAAAAAAAAAAAAAAAAAAAAAAAAAAAAAAAAAAAAAAAAAAAAAAAAAAAAAAAAAAAAAAAAAAAAAAAAAAAAAAAAAAAAAAAAAAAAAAAAAAAAAAAAAAAAAAAAAAAAAAAAAAAAAAAAAAAAAAAAAAAAAAAAAAAAAAAAAAAAAAAAAAAAAAAAAAAAAAAAAAAAAAAAAAAAAAAAAAAAAAAAAAAAAAAAAAAAAAAAAAAAAAAAAAAAAAAAAAAAAAAAAAAAAAAAAAAAAAAAAAAAAAAAAAAAAAAAAAAAAAAAAAAAAAAAAAAAAAAAAAAAAAAADD//g1NiK5dl7SgcAAAAABJRU5ErkJggg==;" parent="26" vertex="1">
                    <mxGeometry x="148.66646616541354" y="245.552" width="82" height="29" as="geometry"/>
                </mxCell>
                <mxCell id="28" value="Abnormality Detection&lt;br style=&quot;font-size: 16px&quot;&gt;Model Inference" style="rounded=0;whiteSpace=wrap;html=1;fontStyle=0;fontSize=16;fillColor=#ffe6cc;strokeColor=#d79b00;fontFamily=Verdana;" vertex="1" parent="26">
                    <mxGeometry x="25.51" y="51.256" width="201.15" height="92.976" as="geometry"/>
                </mxCell>
                <mxCell id="29" value="Misdiagnosis Report" style="rounded=0;whiteSpace=wrap;html=1;fontStyle=0;fontSize=16;fillColor=#ffe6cc;strokeColor=#d79b00;fontFamily=Verdana;" vertex="1" parent="26">
                    <mxGeometry x="26.98127819548872" y="159.72799999999998" width="203.10902255639098" height="71.52" as="geometry"/>
                </mxCell>
                <mxCell id="31" value="&lt;b&gt;RestAPI Server&lt;/b&gt;" style="text;html=1;align=center;verticalAlign=middle;resizable=0;points=[];autosize=1;strokeColor=none;fillColor=none;fontSize=16;" vertex="1" parent="26">
                    <mxGeometry x="65.19548872180451" y="17.88" width="126" height="23" as="geometry"/>
                </mxCell>
                <mxCell id="35" value="Container" style="text;html=1;align=center;verticalAlign=middle;resizable=0;points=[];autosize=1;strokeColor=none;fillColor=none;fontSize=14;fontStyle=1" vertex="1" parent="26">
                    <mxGeometry x="94.19999999999996" y="414.816" width="76" height="21" as="geometry"/>
                </mxCell>
                <mxCell id="54" value="Model Backend&lt;br&gt;Runtime" style="rounded=1;whiteSpace=wrap;html=1;fontSize=16;arcSize=8;fillColor=#bac8d3;strokeColor=#23445d;fontFamily=Verdana;" vertex="1" parent="26">
                    <mxGeometry x="11.77" y="299" width="237.45" height="89.08" as="geometry"/>
                </mxCell>
                <mxCell id="55" value="" style="shape=image;imageAspect=0;aspect=fixed;verticalLabelPosition=bottom;verticalAlign=top;fontFamily=Verdana;fontSize=10;image=data:image/png,iVBORw0KGgoAAAANSUhEUgAAAnwAAACdCAYAAAAuaqVYAAAACXBIWXMAAA3XAAAN1wFCKJt4AAAKT2lDQ1BQaG90b3Nob3AgSUNDIHByb2ZpbGUAAHjanVNnVFPpFj333vRCS4iAlEtvUhUIIFJCi4AUkSYqIQkQSoghodkVUcERRUUEG8igiAOOjoCMFVEsDIoK2AfkIaKOg6OIisr74Xuja9a89+bN/rXXPues852zzwfACAyWSDNRNYAMqUIeEeCDx8TG4eQuQIEKJHAAEAizZCFz/SMBAPh+PDwrIsAHvgABeNMLCADATZvAMByH/w/qQplcAYCEAcB0kThLCIAUAEB6jkKmAEBGAYCdmCZTAKAEAGDLY2LjAFAtAGAnf+bTAICd+Jl7AQBblCEVAaCRACATZYhEAGg7AKzPVopFAFgwABRmS8Q5ANgtADBJV2ZIALC3AMDOEAuyAAgMADBRiIUpAAR7AGDIIyN4AISZABRG8lc88SuuEOcqAAB4mbI8uSQ5RYFbCC1xB1dXLh4ozkkXKxQ2YQJhmkAuwnmZGTKBNA/g88wAAKCRFRHgg/P9eM4Ors7ONo62Dl8t6r8G/yJiYuP+5c+rcEAAAOF0ftH+LC+zGoA7BoBt/qIl7gRoXgugdfeLZrIPQLUAoOnaV/Nw+H48PEWhkLnZ2eXk5NhKxEJbYcpXff5nwl/AV/1s+X48/Pf14L7iJIEyXYFHBPjgwsz0TKUcz5IJhGLc5o9H/LcL//wd0yLESWK5WCoU41EScY5EmozzMqUiiUKSKcUl0v9k4t8s+wM+3zUAsGo+AXuRLahdYwP2SycQWHTA4vcAAPK7b8HUKAgDgGiD4c93/+8//UegJQCAZkmScQAAXkQkLlTKsz/HCAAARKCBKrBBG/TBGCzABhzBBdzBC/xgNoRCJMTCQhBCCmSAHHJgKayCQiiGzbAdKmAv1EAdNMBRaIaTcA4uwlW4Dj1wD/phCJ7BKLyBCQRByAgTYSHaiAFiilgjjggXmYX4IcFIBBKLJCDJiBRRIkuRNUgxUopUIFVIHfI9cgI5h1xGupE7yAAygvyGvEcxlIGyUT3UDLVDuag3GoRGogvQZHQxmo8WoJvQcrQaPYw2oefQq2gP2o8+Q8cwwOgYBzPEbDAuxsNCsTgsCZNjy7EirAyrxhqwVqwDu4n1Y8+xdwQSgUXACTYEd0IgYR5BSFhMWE7YSKggHCQ0EdoJNwkDhFHCJyKTqEu0JroR+cQYYjIxh1hILCPWEo8TLxB7iEPENyQSiUMyJ7mQAkmxpFTSEtJG0m5SI+ksqZs0SBojk8naZGuyBzmULCAryIXkneTD5DPkG+Qh8lsKnWJAcaT4U+IoUspqShnlEOU05QZlmDJBVaOaUt2ooVQRNY9aQq2htlKvUYeoEzR1mjnNgxZJS6WtopXTGmgXaPdpr+h0uhHdlR5Ol9BX0svpR+iX6AP0dwwNhhWDx4hnKBmbGAcYZxl3GK+YTKYZ04sZx1QwNzHrmOeZD5lvVVgqtip8FZHKCpVKlSaVGyovVKmqpqreqgtV81XLVI+pXlN9rkZVM1PjqQnUlqtVqp1Q61MbU2epO6iHqmeob1Q/pH5Z/YkGWcNMw09DpFGgsV/jvMYgC2MZs3gsIWsNq4Z1gTXEJrHN2Xx2KruY/R27iz2qqaE5QzNKM1ezUvOUZj8H45hx+Jx0TgnnKKeX836K3hTvKeIpG6Y0TLkxZVxrqpaXllirSKtRq0frvTau7aedpr1Fu1n7gQ5Bx0onXCdHZ4/OBZ3nU9lT3acKpxZNPTr1ri6qa6UbobtEd79up+6Ynr5egJ5Mb6feeb3n+hx9L/1U/W36p/VHDFgGswwkBtsMzhg8xTVxbzwdL8fb8VFDXcNAQ6VhlWGX4YSRudE8o9VGjUYPjGnGXOMk423GbcajJgYmISZLTepN7ppSTbmmKaY7TDtMx83MzaLN1pk1mz0x1zLnm+eb15vft2BaeFostqi2uGVJsuRaplnutrxuhVo5WaVYVVpds0atna0l1rutu6cRp7lOk06rntZnw7Dxtsm2qbcZsOXYBtuutm22fWFnYhdnt8Wuw+6TvZN9un2N/T0HDYfZDqsdWh1+c7RyFDpWOt6azpzuP33F9JbpL2dYzxDP2DPjthPLKcRpnVOb00dnF2e5c4PziIuJS4LLLpc+Lpsbxt3IveRKdPVxXeF60vWdm7Obwu2o26/uNu5p7ofcn8w0nymeWTNz0MPIQ+BR5dE/C5+VMGvfrH5PQ0+BZ7XnIy9jL5FXrdewt6V3qvdh7xc+9j5yn+M+4zw33jLeWV/MN8C3yLfLT8Nvnl+F30N/I/9k/3r/0QCngCUBZwOJgUGBWwL7+Hp8Ib+OPzrbZfay2e1BjKC5QRVBj4KtguXBrSFoyOyQrSH355jOkc5pDoVQfujW0Adh5mGLw34MJ4WHhVeGP45wiFga0TGXNXfR3ENz30T6RJZE3ptnMU85ry1KNSo+qi5qPNo3ujS6P8YuZlnM1VidWElsSxw5LiquNm5svt/87fOH4p3iC+N7F5gvyF1weaHOwvSFpxapLhIsOpZATIhOOJTwQRAqqBaMJfITdyWOCnnCHcJnIi/RNtGI2ENcKh5O8kgqTXqS7JG8NXkkxTOlLOW5hCepkLxMDUzdmzqeFpp2IG0yPTq9MYOSkZBxQqohTZO2Z+pn5mZ2y6xlhbL+xW6Lty8elQfJa7OQrAVZLQq2QqboVFoo1yoHsmdlV2a/zYnKOZarnivN7cyzytuQN5zvn//tEsIS4ZK2pYZLVy0dWOa9rGo5sjxxedsK4xUFK4ZWBqw8uIq2Km3VT6vtV5eufr0mek1rgV7ByoLBtQFr6wtVCuWFfevc1+1dT1gvWd+1YfqGnRs+FYmKrhTbF5cVf9go3HjlG4dvyr+Z3JS0qavEuWTPZtJm6ebeLZ5bDpaql+aXDm4N2dq0Dd9WtO319kXbL5fNKNu7g7ZDuaO/PLi8ZafJzs07P1SkVPRU+lQ27tLdtWHX+G7R7ht7vPY07NXbW7z3/T7JvttVAVVN1WbVZftJ+7P3P66Jqun4lvttXa1ObXHtxwPSA/0HIw6217nU1R3SPVRSj9Yr60cOxx++/p3vdy0NNg1VjZzG4iNwRHnk6fcJ3/ceDTradox7rOEH0x92HWcdL2pCmvKaRptTmvtbYlu6T8w+0dbq3nr8R9sfD5w0PFl5SvNUyWna6YLTk2fyz4ydlZ19fi753GDborZ752PO32oPb++6EHTh0kX/i+c7vDvOXPK4dPKy2+UTV7hXmq86X23qdOo8/pPTT8e7nLuarrlca7nuer21e2b36RueN87d9L158Rb/1tWeOT3dvfN6b/fF9/XfFt1+cif9zsu72Xcn7q28T7xf9EDtQdlD3YfVP1v+3Njv3H9qwHeg89HcR/cGhYPP/pH1jw9DBY+Zj8uGDYbrnjg+OTniP3L96fynQ89kzyaeF/6i/suuFxYvfvjV69fO0ZjRoZfyl5O/bXyl/erA6xmv28bCxh6+yXgzMV70VvvtwXfcdx3vo98PT+R8IH8o/2j5sfVT0Kf7kxmTk/8EA5jz/GMzLdsAAAAgY0hSTQAAeiUAAICDAAD5/wAAgOkAAHUwAADqYAAAOpgAABdvkl/FRgAAXQlJREFUeNrsnXtcVHX+/99n5syVGWC4g9yvchdQEPEKKpiWlphmuummlW1ZuWsXv5u7q79sNzdtbVvbcouKytJMS1O8IQooKIggIBdBQK4DDDDM9Zw58/vDy7plzhmuA7yfjwd/ZJ9zmff5nM95fT6f94UwGo2AIAiCIAgylunu7vZoaWmJbm5ujhOLxfLY2Nido+n3kSP+FxiNJBAEjV0VQRAEQZAHwTAMyTAMaTAYeB0dHcHXr19PrqmpSb5+/XpCY2MjtLe3g1wuh/j4eEDBZ1FPziCkivJeIX2DviNs7SuxKyMIgiAIcj8oihJmZWVty8jIeKW2thYUCgWo1WpQq9Wg1Wrh3h1PiqJG3e8fuYKPMQipi2c3a7785xtWr2wr46LgQxAEQRDkV9DpdLKsrKxXDh06ZLItQRAo+CwCI0NSl85t1nz23huG5gaAUfhgEARBEAQZWBiGGbO/nTMCnxZJXcrerPn03TcMDTWjUoUjCIIgCIIMJCNrhY8xCKlL5zarP3n3DabxBj49BEEQBEGQUSX47vjspe1EsYcgCIIgCGIGI2NL18iQVEH2Jk3azjcMN2vxqSEIgiAIgpiB5a/wMQYhVZC9Sf2fv7+JK3sW+ogYZkj6EYfDwXyL2C/G7uwc+z+CIKNW8N3exlV/ugO3cS2Uqqqq+RcvXnyFoqikQb5UDofDofl8fi9Jkho+n9/L5/OVIpGoSygUKsRisVwkEslFIpHCxsam1srKSo5PZ3gwGAxkYWHhupKSklUcDicaLdI/jEYjiMXiI9OnT9/s6upaiBZBEGR0CT7mv6lXUOxZLpcvX163ffv2JJVKNdiXSrjfP/J4PJBIJGBtbQ1SqRRsbGzA0dERXFxcFK6urvmurq6FXl5ep9zd3XN4PJ4Wn9jgQ9O06OTJk7s+/fRTNMYA4eDgMN/DwyMHBR+CIKNL8DEMSRVkb9Z8ugN99pAHQlEUKBQKUCgUP/9fMoFAkGxra5tsZ2f3xrhx4yAsLKw2Kipqd1BQ0CGpVFqPAhBBEARBwTdsYg9TryADg06ng9bWVmhtbYXy8nLIysryEYvF7zg7O78zbdo07axZszb5+vpmyGSySi6Xi/5RCIIgCAq+IRN7mHoFGSQoioLu7m7o7u6Gqqoq4d69e3fExMTArFmzTk2ZMuVtLy+vLHSMRxAEQVDwDSb3lkvDbVxksLub0QgqlQrOnj0LeXl5ScHBwUmzZs2qfOihh57x8vLKQgshCIIgownLyMN3u1ya+pNb5dIQZCjR6XRQVFQE//znPwNfeeWVM/v37z/Y3d3tgZZBEARBUPANmNgzCKmLZ7eo/7Md8+whwwpFUXD16lXYunXrws2bN9cXFRWtMRgMmEsOQRAEQcHXP7HHkFT+2c2az/qRZ4/HB+BwMdoSGTA0Gg0cPXoUXn/99Y+///77/SqVyhGtgiAIgoxkhm/1gmFIquDcZk3ajjcMfRV7XC7wZy4AjoNzMT5Ky4YgCOBwBmZ+YTQa7/4NJjU1NbB9+/aFtbW1iWvWrImUyWToXDpG4HK5FnMvRqMRuFwuEASBAUUIgowwwccYhNSl7E3qT/pRLo3gAD9hLgiXrIkkxJLmPp3DYBAyPQpfo7rXFYwMSfAECsLatpYQYZWGgUYmk0FKSgo4OTlpbpfc4pl7Dr1eDxRFgV6vB41GA11dXdDV1QU9PT2g0WhAq9WCRqMBlUo1YGJQoVDA559/Lu3p6al56aWXQh0cHMrwaZoW946OjsW+vr4RliSc2traoLu72/SgSJLw2GOPgYuLS8PtfjSs/py3K20Uu7u752LvQhBk5Ai+gUi9QhDAi4oH4RPPpfR1dY9puZmgv3Dqb3RBdoLhZi0YKT1wbOyBDJ4AvMmJm8mI2PcIvkCJXWTgBN/SpUt/Exwc/AXDMLz+nOuOmDMajeRtIWjd0tIyubm5Oa6xsXHW9evXJ9fV1UFTUxPU19eDWq3u173rdDo4cOAA0DRd+tJLL8W4uLhgtYMHwOfzlb/5zW+mPvHEE0JLEqFbt25tO3DggMnJAEmSsGTJktWRkZFpllQPGFMGIQgycgTfndQraTv7lXqFDI0B0W9eWsJ1983oy/GG6rJlmi//+TVVdB6A/u8YauhWgKG+GqhL57YIFjyxSPjIitnAFyiwmwzMB5fD4VC3P1zUAJ2Wuv2B1vj6+h7y9fU9dOd/9Pb2ujc0NMy6fv364pKSkoX5+flQWVkJFNW3S1MUBT/88AOIRKKCl19+2dPa2roBn+qDRR+fz7eoCRNJsh/u7ogrFFkIgqDgM5fb5dL6W0GDDIsB8dN/eILrF7y/T7chb45Wf/6Pr+nLv747wnS0gva7T6IJK+tPBSmpqYC+MyMOiURyMzg4+Ivg4OAv5syZY93a2jr58uXLLx0+fPihwsJC6O3tNXvbl6IoOHDgALi5uR1+6qmn4rA0G4IgCDJSGJooXcYgpC71M/UKQQAZPgnET298gusfurev96HPPr6LLs4z2dTY2wO6Y/sWGhrrZmA3GdkIBIIeT0/P4wsXLpy/Y8cOj7/+9a+fTps2DUQikdnnUqvVsGfPnojMzMx30LIIgiAICr67Iosh+18ujQAyNAbEq3/fd7EHAEatRkblnkgAg4HdrTfdAPrqxRexm4wepFLpzTlz5vz2nXfeCd2wYUOVv7+/2efo7OyETz755MX6+nqcDCAIgiAo+MB4J/XKzn5V0CBDo0H82z88wQ3ou9gDADAquz2YtiZzBCIwzQ3TsZuMPuzs7MpWrlwZunXr1o3Tp083O2VMcXEx7Nu373u9Xi9FayIIgiBjV/AxBiF16dxm9X/+/mafAzQIAsiwiSBes7HfYg8AwEjpZMAwZh6DH/RR2/k5HComJubvf/rTnxIffvhhs5z6aZqGw4cPyy5fvrwGLYkgCIKMTcF3J/XKJ+/2z2cvbOKtAA3//os9AACOxKYWhGLzjrGRVWI3Gd14eHhkvv7666EPP/ywWQl3GxsbISMjY4darcZKHAiCIMgYE3x3Uq989l4/U69E99tn7xeIJc1k8AQAINgZx94JuP4he7GbjH7s7e3LXnrppWkzZ84067gTJ05AdXX1fLQggiAIMnYEH8OQ1KXszZpP3u2fz15YzK1o3IDQARVbBF+g5Cc98ipha8emNZBhE4EMifkQu8nYwM3NLfuZZ555OSAggPUxcrkcTpw4scNgMJBoQQRBEGT0C757Uq8Y+pV6ZWL/Uq+YEpMh0R8KF6/OIawe7JpHBkeCcMnaBYRIjGXWxhBRUVH/ePLJJ4slEgnLOQ4DWVlZsu7ubl+0HoIgCDK6Bd9ApF4hiFsre6v/MGhiDwCA4PGVguQlj4pWbTjEDQgF4P7vwgzHxg74iY+AeN0fF3G9/I9gFxl7zJs3LzUqKop1++bmZrh48eILaDkEQRDEUun/NtS9qVf647MXEn1L7AWEDrrPHCESywXJi1PJkKgkQ3XZMkNT3Sqg9EDY2uWTPkH7uf6hewkJls4aq8hksqrU1NS9ly5dWqbRaEy27+npgby8vBeTk5PXo/UQBEGQ0Sf4GIOQKsjepP7P3/sXjRsaM6DRuCyvS3M9/TK4Hr6nwECvB4YhgeQpAWtnIgAQFxe3NSgoaFlRUZHpOY/RCDU1NdDV1eVja2tbi9ZDEARBLI2+b+neTr3Sb7EXPnHoxd7PhB+QPCXwBYp+iT1KLzXqtDLsUqMDa2vr2tmzZ3ewbd/S0gJ1dViGD0EQBLFM+rbCZzSS1OXzGzWfvdePcmlwu1zaH54Y6alPjGqVo+7I1ycJvkDBT168hBBioMeIfzFIUhMVFfWutbX1tp6eHpPt29raoL6+fkZkZGQaWg8ZaXR1dfm0trZGyOXyiLa2toiuri5fnU4n0el0Mq1WK2MYhhQIBAo+n98rEAiUEomk2dHRsdjJyanYycmp2NHRsYwkSe1osonBYCDb2toienp6PHx8fE7z+Xxlf8+p0WhkbW1tEZ2dnQEajcaRpmkRh8OhhEJhl7W1db29vX25TCar4YyAnaY7faatrS2ira0toru721ej0cj0er1Ep9PJGIYhSZLUkiSpEQqFXVZWVk3W1tYNNjY2DQ4ODmWurq759vb2lZwxtqvGMAzZ1dXl297eHqxWqx01Go2MoigpSZIaPp/fK5FImu3s7CplMlklj8cb0HeqT4KPvnppnebTHVv6lXolfOKtcmkjXexp1I7a7z8t0B1K9wCSB0aAfYKHlj5M8Po/OCDDi5OTU4Gvry+w2dbt7e0FuVwegVZDLB2KooQajcaxoaEh4cqVK2uKi4uTamtrQalUQm9vL6hUKtBoNEDTv/gOywBAxuFwgM/nh0gkkiQrKyuQSCTg6OgIwcHB8tDQ0L3h4eFpdnZ2VQKBYESMgXq9XkrTtFCj0cgaGhqmV1dXL6iurp5fU1NDyuVycHV1ha1btwbZ29sr+3Lutra2iIKCgucKCwtX1NTUQHd3N2g0GtDr9cAwDHA4HCBJEgQCAYjFYnB0dISAgABFZGTknrCwsHSZTFY7EGKzP9A0LVSpVI43btxIut1nEurr66G3t/fun1arvV+fEd7+k/F4PB+hUAhCoRCsrKxAKpWCvb09+Pn5acPDw9PDwsLSHRwcygQCgYLL5Y4KEWgwGEi9Xi9tb28PKS4uXlVWVrb0xo0b0ra2NlCpVEBRFFAUBQaDATgcDnC53Lv9QCqVgre3N4SEhByJiIhI8/DwyBIKhf2yjdmCz3C9PFWTtmOXoa6qb1e8E43722Hcxh0osafqddV+/2me7od0D6NGDQAA2m8+msERSz7iJz68Grija8Y71rC3ty/z8/NjJfgAADo6OgIMBgP5oBfy5s2bCR0dHQFGo5F88GtC0A4ODmXjxo3LH6n2a2pqim1razMpgjkcDu3j45MhlUqbsdcN3oens7MzsLa2NvncuXNvnj17Vtbc3Axarfau8DBjhQK0Wi1otVpob2+/++/Z2dmOAoHgRZlM9uLkyZMhMTFx5/jx479zdnYuGOiVioGgsbExNi8vb2NlZeWiqqoq8o7o1ev1oNfrwWAw3Gs/oTnnViqVriUlJasyMjK2nTt3Djo7O0Gr1bK2c1ZWlkwgEGx0dnbeGB8fDzNnztwaFBR00NHRsXioxBDDMGRnZ2dgXV3djHPnzv0lKyvL8ebNm3f7jNFoNHeiARRFgVKpBLn8v5tg586dEwqFwjVisXhNUFAQTJ06tTAmJuZ9Dw+PXDs7uxFZ6UqlUjnW19fPKCgoeCEnJ2dGWVkZdHd3g16vv58o/lUuXLgAfD5/vpWV1fyQkBBITEw8FRcXt9PT0/NsXyYBZgk+puVmguaLXfvoyqt9F3vhE0G86vcjX+ype12136fl6X788q7YAwAwKrtA8/XuZYSNrJYXO3MTfmpGLhKJ5KazszPr9u3t7VK1Wu34a8KFYRgyMzPzrbfffnsGm4E/OTkZ3nnnHeuRslJyLzqdTvqPf/wj7/vvvwcO59ddhY1GI3h5ecG77767Mjw8PB173cDT0NCQcPbs2b+cPn06qaioCHp7e83+WLNcBQKapkGlUsH+/fvhhx9+eGX8+PGvzJo1q3batGlbxo8f/91wr1Tdy9GjRz9+7733IiiKeqA9CIIwxwbCixcvvnjo0KF3Tp8+DV1dXf2yZU1NDdTU1MD+/fvfjIqKejM5OfnU1KlTt3p5eWUNpm1u3ryZkJ2d/eaZM2eSCwoKoKenZ1D6zG0xDSqVClQqFcjlcsjJyYm2tbX9NCYmBqZNm5YxceLE9319fTNGwqrfndXc3NzcddnZ2dDc3GzWZOpBk6tz585BTk5Okp+fX9LcuXOb582bt87f3/+IOVvirAXfbYGTTV0+3+ebH5RyacMh9rRqR+2BT/N0P37lYVSrfvmQ5M2g+frDNzh2TsVYmm1kY29vX0YQRAibwa6npwe0Wq3s1wQfh8OhY2Njd7q4uMy4efOmyfOVlZVBeXn50gkTJuwZaXarqKhYXFJScnfQehAxMTHg5+eXgb1tYKmrq5vx008/fXT27NnA8vJyUKvVQ3p9vV4PxcXFUFpa6nP48OFPZ8yY8fGiRYueCAwMPGgJfltGo/Hu30B97L/99tvD33//vUdDw8Bm9dLpdHDhwgUoKipKyszMTPr73//uOxgZAVpaWqKPHTu2+8SJE7ElJSWg1WqH5bkoFAo4efIkZGdnJ/v5+SVPnTpVsWDBgtUBAQFHLNHnT6FQ+Jw6dWrn0aNHF165cgXY+H33VQBWVVVBbW2ta1ZW1sHFixefWrhw4UqJRMJqd4Sd4DMYhPqTB7/Wn/4RgDH04TaJ0eOzp1Y5ag98WqD74UsPo0b16yarLgXt/j1fi5/9v0JCZl8JyIhEIpHcFAqFIWzy8d3eBnrg1o+7u3vutGnT4Ouvv2Yzy4bz589vHImCr6ioaE1NjWkfX2tra5g8eXK6WIyBTgNFd3e3x8mTJ3d8+eWXqRUVFUBR1LDej8FggOvXr8ONGzfIzMzMfUuWLCletGjREw4ODmWjxealpaXLPvjgg6+zsrIG1d5arRZUKhUMtOhRqVSO2dnZb6alpb1YWlo6LELv135vaWkpXLt2TXb8+PGDKSkp8scee2zJYK9wskWpVLpmZWVt+/bbb1ddvXoVent7h+S6NE3D1atXoa6uLqm0tLTp+eefn+ru7p4zIIKPLitcqz34+Qyjtg8zxDvbuKt/P/LFnkp5axvXhNi7KwDyzgDXN3ifcPHqOPTnG5nw+Xwlj8cDNoJPp9MBTdOiB7WxsrKSJyQkvH/48OEXlUqlyQ/lxYsXAxctWhTt6upaOFJsJpfLQ3JychLYbGX4+flBbGzsTuxpA/IREJaUlKz44osvPj516hSrPjvUwq+2thbee++9iLy8vNLVq1dvmjx58vaRHqV57ty5N//+979vuXbt2qBte95LfHx8s0gkGpAJEsMwZFVV1fy9e/ce/PHHHwdtZWqg+s5HH33keObMmTO/+c1v9icmJr4qk8mGJe8pRVHC0tLSFV9++eXHJ0+eBJVKNSx2USqVcODAAWhqasp+7bXXlgQHB+9/UHuTefiY9pZo7YG0XYy8b/7U/029EjoKVvbSbm3jalg+XJoC3U97I6ji/FfwczQy4fF4ai6Xy3YQAIZhTE6iwsPD08LCwlids7i4GK5du5Y6kmx248aNpMuXL5seG0gS4uLiFCNJzFoqKpXK8bvvvtv/6quvfnz48GGLE3v/MxHW6yErKwv++Mc/btu7d++x3t5e15Fq91OnTr3z1ltvbSkvLx8SsScQCGDChAl7BiIIxmAwkKdOnXpn06ZNB7/66iuLFXs/F37l5eXw3nvvpZaUlKwejnvo6OgI/Oyzz/LeeOONjw8dOjRsYu8e0Q65ubnw1ltv7SsvL0/tu+AzGIT6Mz99TF+50DexFxwF4t/+fuVo8GNj2ppi9dkZHka1eUu2TEcb6H5I38Z0ykPwszQiV03EbJ1ueTweq60WV1fXwkmTJjWQpOkF9p6eHjh//vwbWu3ISOpNUZTw3Llzf+nu7jbZ1tbWFubMmYPl6PpJa2trxHvvvdf27rvvzq+rqxsx933z5k34+9//nrRr166m1tbWEZfS6MKFCxt37NixkY3rwkDh7e0NbLbuTNHb2+ualpaW99Zbb71SUlIyJGJ1IJFIJODi4lIw1Ne9du1a6tatWyt27doVcf36dYuySX5+Pmzfvn1fU1NTbJ8EH11dlqo7cSDaSOnNvjjXdzyIVr38PDcgbFRE3nHGeZ0VLlx5hLC2Nf8jWJwP+rM/fQQmUnEgFilgRGzD6Pl8PpAkyWppZfr06ZtdXFxYnffMmTPAJr2JJdDd3e17+vRpGZsPSHR0NPj7+x/BXtZ3bty4kfTnP//5yldffdXniND/Gbe5XJBIJODk5ATjxo0DLy8v8PHxAR8fH/Dw8AA3Nzewt7cHkUj0wOhrM4QHfPnll/DXv/71ys2bNxNGit1LSkpWvPvuu+9UVVUN6XXDw8PBycmpuD/n6OzsDNyxY0fTrl27opuamgb2O8nhAI/Hgzv59gQCAZAkOSB95efC19fXd8gCvSiKEmZkZOx6/fXX9x09etRifBx/Tm5uLuzevTtPrVY73u///6oAMeo0Mt3x/V8wTebPGDluniBa+eJWMiR692gZWAkeX8mfvXClUaM6qf32o+j7Ref+Knod6E//mMCLnDyf6xN0CD9TIwetVmun17Ob8AgEAuByuaxGguDg4L0RERGfsonWbWxshPz8/Fc8PT2zLN1eFy5c2MjmN/F4PEhJSUkTiUQK7GV9o6KiYuH27dsPZmdn9yv1g7W1NXh5eYG3tzd4enoWu7m5XXZ1dS22sbGpFwqF3QKBoNdoNIJGo7HXarU2HR0dfs3NzVGNjY3RdXV1nnV1dXDz5s0+byNTFAVHjx4FmqazN2zYMNvHx+eUJdu9qakpdufOnV9cuXKlT8ffSazL4XBAr9eDTqcDU6lh7oip4ODgLLYRmfejvb09ZNeuXaUHDhwAtuPagya4Li4u4OLiAnZ2dmBvbw82NjZyoVCouONjSNO0SKfTyTQajW1XV5esp6cHurq6QC6XQ1tbGyiVSrNXF/l8PkyaNKlwqCq7qFQqx7179x7bs2dPdEdHR5/OIRQKwdHREWQy2V0hzOfzgWEY0Ov10NvbC11dXdDW1tYvdwyGYeDYsWMwYcKEfy1evHgJa8FHl11+jrpw2nxhZCUF0dJn03kx07aMtgGW4AsVgpQlC5iWm0264wfMilg23KgE/blju0XuPqcBq3CMGLq6ugLYRt0JhULg8Xis3lYej6dNSUnZffr06XWmZosURUFGRsbC+fPnyyxZIFEUJczMzFzFJv1HQEAAREZG7sEe1jcqKysXbtu27eCFCxf6tB3H5XLBx8cHZsyYUR8dHZ3m4+OT7eHhkSsQCMxySOrp6RnX0NAwqbq6enZ+fv6zOTk5ZEtLi9kClGEYOHnyJBAEcXLjxo1TPTw8cizR7lqtVvbZZ5/lXLjA3s2Jx+OBr68vREZGQmBgYI69vX25lZWVnMPh0Hq9XqLVamUajUbW1NQUW1tb61pbWwu1tbWg0+n+59m6urr2a0W8o6MjcMeOHaWHDh3qcyQxj8cDf39/iIuLg+Dg4L2enp5nXVxcCuzs7KrYjE1arVbW1dXlI5fLQ9ra2iLq6uqSysrKoq9evQoNDQ1A07TJ/iwSiYYk0IsgCOjq6vL57LPPctLS0lzZ+uoRBAFcLhfc3d1hwoQJEBQUVOjm5pbn6OhYLpPJKoVCoUIgEPTyeDwlwzCkXq+XqlQq166uLt/m5uboqqqqhRcvXnQsLi4GnU5n9n13d3fDt99+mxoVFZX881XQ+ws+Si/Vnzy0zdjTZe4oAoK5jyl5CXPXA0GMyvp4hJW0Wbj4t1MNDdez6VIzfM2NRtBnHnblT0tJxFW+kYFer7dub2+3Z9teJpOBSCRqZ9s+Ojr6Q19f33VlZaazU5SXl0NZWdmymJgYi101r6ioSL16lV1S9unTpyuGwwdnNNDU1BS7ffv2Pok9Ho8HAQEBsGTJkv1TpkzZ5erqWiwUCrv7ei/W1taNoaGhjaGhoQeTkpK2NjY2Rh0/fnzbjz/+GHXz5k2zqgoYDAY4ceIE2NraZm/YsGFQ8sz1l2PHjv3r+++/J9n8LolEAjExMbBo0aI94eHh6XZ2dpUPWp2jaVrY29vrqlQq3erq6hKzsrK25Obm3l099fDw6LPg6+3tdf3www8rDh48aNYzuec5w8SJE+Hhhx/eEx4enu7k5FQsFArNnnwKhUKFi4uLwsXFpfC20CeVSqWrQqEIvHbt2uLMzMx1ly5dgra2tl8VO76+vjAUux2dnZ3wwQcf1Hz77besVt34fD7Y29vD1KlTYebMmTv9/f2P2NvbV1pbW7NJylh8z3dnQ2dnZ8CVK1dWffvtty/m5+ebLfyuXLkCJ0+e3PH0009H3puw+r6CjyoteI4uNX8s5k2YDIIFy2cTAuGo3qbhuLjniJY+96rq/T+9Y070MtMpB/3pH74Qrf69HYyxgtEjEaVS6d7czP75Ojo6VppTFcPOzq5y7ty5tWVlZT4sZueQmZn5N0sWfHl5ea+w2c51dnaGuLi47ZZYbsvS6ejoCNy1a1dedna22WLPy8sLHnvssfMLFy78nYuLS8lAp0ORSCStQUFBx/z9/U8+9NBD07799tsvjh49Oq6lpcUs0ff999+Ds7PzqTVr1kRaSpUZLperraioWPjZZ58tM+UryePxYMKECbB8+fI9M2bM2Mw6KS5Jam1tbWttbW1rPTw8cuLi4rYrFIrAzMzMbYcOHZofHh6udHR0NDt3oU6nk+7du/fYd999Z7bYk0qlMHHiRFi8ePH7CQkJW62srAY0XyaHw6FtbGwabGxsGry9vU8lJia+1traGnHq1KkdGRkZsRUVFb/IbRcXF6cYqLQ0D6KwsBAKCgpMroby+XwIDg6GGTNmNKSkpKzra9mze86ndHFxKXRxcSmcNGnSPw8cOLAvPT09whx/S4Zh4IcffghJTk5OuDdn4S8En1Gvk1LnT7/DdLSa9+AcnEGwYPlWjpNb/hgYd4EMm/ihYM6jazTffhQIbF8ixgBUQbaUP3dxEtfDFysLWP7HlXUkFp/PBwcHh3Kz+hBJaidPnrzd2dn5X62trSY/hAUFBdLGxsZYS6yv297eHnLp0qVoNltF4eHhEBoaihVozESr1crS09PP/PTTT/9T59UUAoEApk2bBqtWrXouJibmP4NdoorL5dJ+fn6Zf/jDH/xjY2Nf/fzzz/+Sn5/P+p51Oh189tlnPp6enrsefvjh1cNtd4IgQKVSVRw8eBBKS0tNroQtWbJE+8QTT6T0dxWKx+NpnZycipcuXbpg5syZEX2J1GcYhjx58uSOtLS0CHOSAhMEAQEBAbBs2bKsBQsWrB6q1VY+n6/08PDIWbVqVVxKSkr06dOn3zl69GhSQUEB0DQNAoEAoqOjPxyKyaIpH0cOhwOBgYEwf/78soceeuiZwXBDsLOzq1y9enWMu7v7rvfee2+dORHh169fh7y8vI33Cr5fhM4YaisW01fMLJ/G4QJvchJNRsZtHzOjL4+n5M946BkyIMyswwwtN4HKP7MNP1+WT3Nz82S2JZJsbGygL5UD/Pz8DsfGxrJqW1lZCUVFRWst0VZVVVXzi4qKTLYTiUQwefLkHEvcrrN0cnJy3ti3b5+rORGCYrEYnnzyycY///nPobGxsf8eynqkPB5Pm5SUtGXr1q1TlixZohIKhayP7erqgs8++2xVVVXVfEuw/ZUrV+CHH354YBtXV1f4wx/+kLF+/Xq3gd5ydHZ2Lu5LdYna2tqkjz/+eE1bW5s5gh2mTZsG27ZtW/3EE0/MHq531cXFpXD58uWz33777akbN27M9/T0BD8/P7CE4DV7e3tYs2aNcvv27YvWrFkTOZg+p1wul547d+76F198cQ/bzA53FgmOHj06/96I3f8VfEYjSZddXmNoNC8yl+vmCYJ5jy8geIIxFYzAcfPKEsx9bC8hlrA/iNIDfbUg2tjdGYifMMtFr9dbX7hw4SW2kWxOTk59GohsbGwa4uPjD4nFYpNtlUol5OXlrfm1kPthtJX0woULG9lEsLm5ucH06dP/hD3MPG7cuJH00UcfbTTnw21vbw8vv/zysRdeeCHGyclp2MqYeXp6nv/DH/4QtHbt2stSqZT1cSUlJZCenn54uBMzK5VK+OKLL+BB/dvLywtee+21PUuWLFlgKYFVarXa8T//+c+xa9eusT5GJBLBsmXLYMuWLXERERFpQzlB+DXc3d1znnrqqYSdO3euXLdu3fuOjo7Fw3UvfD4fYmJi4K9//evWF154wSsoKOjQUNiIw+HQc+fOfXHZsmW15kycKisroaamJvm+go/p6gikL+ealwuJwwV+0sJCrrtlh9IP2iw2fvYGMtDMVb7aa0DXVizEz5jlolAoArKy2Os3d3d38PDwyO3LtSZNmrTTz8+PVdvz589DfX39DEuyVUdHR0BWVpZJEcrhcCA2NhZGQnoZSxPUn3/++Ulz0oDY2dnBCy+8sH/58uWpEomkdbh/g7W1deMzzzwz7emnn75obW3N6hij0Qg//fQTnDt37s3hvPebN2/ClStXfjXy2MPDA1577bWdDz300FpLEEh3+Omnnz7OyMhgHTEtEAhg+fLl2pdeesnXzc2yXLM4HA4dHh6enpycvF4qlTYPUx+GZcuWwbvvvhs3Y8aMzX0JWumX1uDxtKmpqYuioqLMmqxcunTpxfsLvuaGKXRliVk3wXX1AF7crE1jNQiBEEvk/KRFewgen/UxTEcbGCqKVwFjEAJikeTk5GxnE4Bw+0WEoKCghr466np5eWVNnDiRZlPCraGhAQoKCp5jU8JtqCguLl7FxtdRJBJBSkrKqxwMWDKL/Pz8l48dO8b6wy2VSuHpp5/OfPTRR5/j8/kqS/kdAoFAtWrVqnkrVqwoE4lErI7p7u6Gffv2revo6Bi2HZEHpQpxdHSE9evXp8+ePXuDJfWZurq6Gd99991CU/W670CSJCxduhTWrl0bie4Wv8TZ2RnWr1+fs379es/hFMNOTk7FixcvTmf7/mi1WiguLo79peAzGITU5dxNrOvE3vnYJcxp5rq4547ZnkAQNBkx6X2umb58VHF+CKPowG1dC6SjoyPkwIEDs9j6SllbW0NMTMz7/bnm7NmzN9ja2pqeLDAMnDhxIkmlUlnEtu7tDPQvstn6joiIgPHjx+/HHsaenp4ej3379m1pb2eX7YfL5cIjjzzS/cQTTzwhFos7LO33iMXijlWrVs2bP38+zbb6wsWLFyEzM/MdS/stVlZW8PTTTxc+9NBDFuVXyzAMeeLEiV3mrAgnJibC2rVrI+3s7CrxrftfvL294U9/+tPOJ554YjbLFCuDSkJCwtbAQPbSobm5GeTyW6Vd775xRr1WSl/O9QEzEmZyHF2AFzXl7bGeSJgjcyjjJczJAoJgfYyhugyYjrYIfJ0sj6NHj+4zFY13L76+vhAREZHWn2uGhYWlh4aGsmp79epVKC8vX2YJtrpx40ZSUVERqyoBc+bMybKxsWnAHsaeM2fObMvNZT+fnjJlCjz77LPTLWEb99ewtbWtf/bZZ6fHxMSwaq/T6eCbb75ZeOejZQlwuVxYtGgRLFmyZIGlpReqrq6ef/DgwQi2KVhCQ0Ph+eeff8LZ2bkY37j/JSAgAP74xz9unT179gZLec42Njb1iYmJlQRLvdHZ2QmNjY1T/kfwMa2NU5g28+rqcf1Dgevlf3jM9wqCQ5OB4WkcJzfWhxi1ajDcqFiI9XUti6tXrz7zzTffhLDNqs7lcmHu3Lk5/XXUFolEinnz5u0nSdPdobe3F44fP77DEuyVlZW1TS43nRLLy8sLoqOjP8TtXPZ0dHQEHj9+fEV3N7u8yOPGjYO1a9e+4OLiYvEfbi8vr/PPPPPMa/b27PKaV1dXw5kzlpPdIDo6Gp566qnZw+VP9mvQNC08deoU6xq/tra28Jvf/GZvSEgIpkn6Gd7e3rBp06ZN06dP32xJ90WSpDYmJuZDKysrVu27u7vv1mK/K/joqtJlRq2a/VV5fCDHT8gnpLjfDwDAdfc5RQaGsz/AaATDteJUoCkRWs8yaG9vj/jPf/7z74qKCtbHODs7w5QpU94eCCETExPzobe3t8l2DMPApUuXYLiLzSsUCp+8vLwINlng4+LiwMfHB3NPmsG1a9cW5+XlsZ54PPLII2XR0dFpI+X3TZ48+YNFixbVs1mpUKlUkJWVtXC4I3Zvr7DAb3/72+3e3t4WF6ioUCh8jx49GsgmKTdBEDBz5kyYM2fOBnzbfklQUBAkJCS8bYn35uzsXMjmWwEAoFaroaury/d/BJ+hunSZUcu+aC/H3gnIkKjd2C1uvzwS6wZuQFgOkDzWgo+uLgWjXidB6w0/SqXS/d///veVEydOmHXcQw89pO1rdO7PcXV1zZ85cyarbYP6+no4f/78xuG0WUlJyWo2KR9kMhnEx8fvtuQ6wJaGVquVHT9+fBvb1b2wsDBYtGiRRQVpmEIgEKgee+yxNSEh7HZqi4uLoaioaM2wjvMEAY888ojFCoGzZ8/+pa6OXVo1Z2dnWLly5Uq2lUDGGmx9TIcDW1vbGl9fX7ZjCXR3d3vcFXxGldLV0HgDwIxSPRw7R+B6+uGM/d5ZtnfAEY4t69KrYOyUA9PWFIuWG146OztD9uzZ0/Dtt98C27x7AAB+fn4wb968tQMVni8QCJSTJ0/ezmabq7e3Fy5cuLBwuII3aJoWFhQUPGeqQggAgL+/P8TExHyIPY09jY2NsZmZmazaCoVCSElJOeHj43NupP1OPz+/zOTk5PNsXBlaWlrg0qVLLxoMhmFzgxk/fjwsXbp00VCn5GCDWq12PH78eCqbuq8EQUBKSgoGUY1QpFJps5ubG+s+qFKpXO8KPqajLcLYY0b9bIIArqc/ECIrOZr+HsHn6XeEMEfw0XpgWoZ3W26s09LSMvn9998v/fzzz1kVyL4DSZIwd+5ceXBw8IAOmKGhoemRkZGs2l65cgUqKyuHJZ9jU1NTXG5urkmxyePxYPLkyQ1OTk7oEG4G58+ff6Ozs5NVWx8fH5g3b95rI3QVhZ49e/af2EYdFhUVOd7xRxpqrKys4PHHHz/l7+9/xBJtWVZWtqy6uppVW2dnZ1iwYMFqrGc9MuFwOLQ5CagpihLeFXzGrvYQo4p9oC3BFwA3IGw/EAQ6YN/7EGSOZRwXd/YHUBQY2ppxhW8YoChKVFBQ8IdNmzad379/P7AN0rhDREQEPPbYY0tIkhzQAdPe3r4yNja2UCAQmGxbX18PhYWF64YjJ9+1a9cWl5ebLh1sZ2cHlpajbAT0TWFOTs4MNqvNHA4HkpKSip2dnUtG6u/19/c/MXny5EY2eSivXr0KTU1NccNxnzExMZCcnLzeUgOPrly5sqq5md3ubEJCAvrUjnCkUmkz26obFEVJDQYDeWuFT9ERYlT1sL8SyQOuhy92ll+OvjR3nFcDcNl9f400BYx8eAavsQrDMLy6urq5e/bsadmwYcP27OxsYBN08DNRBs8+++zbfaltyYZp06ZtdndnN3HIzMyMHuqktBqNRnby5EmTufcIgoCJEyeCry+OFeZw/fr1BWxXamxtbSExMXGrJVV46AuzZ8/+k0wmM9lOqVTC5cuXnxvqbV1ra2tYuHBhWl/qZQ8F3d3dHiUlJdFsUrGIRCKIj49Pt7QIY8Q8rKysWAs+g8EADMOQd1b4go3qXtYXInh84Di4FKLJ76P5nMblEWwDNxgGjPIWrLYxBBgMBl51dfXi9PT00tdeey1j165d1mxnw/ciEAhg6dKl8sF02vb19c2Ijo4GNtGLV69ehYqKisVDacumpqZYNtGjPB4PkpOTdwsEAiX2QPZcuXJlFdtEy7GxseDh4XF+pP/mkJCQg+PHjzc9STYaoaCgIEKr1cqG8v4iIiLA0tJz3EtDQ8MMtjVzg4KCICwsLB3ftJENn8/v5fP5Zh1za4WvV+lmTsAGIXMAQiRG/737Cj63fCDZTz6NaiUATaPoGySR19PT452dnb39b3/7m37jxo37//a3vwUUFhaCwWAw+3xcLhcWLFgAv/nNb6b2tYway+vQ8+bN2ywWi0221Wg0cOLEiS30EPahs2fPbnlQIfl7Pyz9TUg9FqmqqprP1sUgNjb2oI2NTeNI/80CgaA7ISHhBJvIyMrKShhKwScUCuHxxx/fbclJw5uammIbGtjdnr+/P3h5eZ3CN21kw+VyKXMjiUkwGknQ62zNEjUyBwAOF50972cbO4cytlu6AABGmgYjpZMSA+wLNtZgGIan1WrttFqtfU9Pj3d1dXVqQUHB6vz8fGhqaoLu7m5gm3n+vpMcgoBZs2bBCy+8EDcU5YfCwsLSg4ODt1y6dMnkikdubi40NzfHeHh45Az2ffX29rpmZWXFsvEvmzVrFgZrmElnZ2cg2w+3s7MzBAQEHBslHy86JibmM5FINMeU2O3q6oL6+vrp9vb2Q1IGLC4uDmJjY9+z4IktWVNTk0xRlMm2YrEYQkNDT410FwAEgMvlas0XfAZaZNTrzJotEUIrAA6BFr+vbcRys2xjMADo9RLAiOd7BzAewzAkTdNio9FI0jQtYhiGR1GUiKIoa5qmxRqNxk6tVjtrNBrnnp4en8bGxqkNDQ3utbW1UFVVBT09PUDTNOuC82zE3u9///uUcePGDUnhbKlU2pCcnJxTWFiYYOo3tLW1wZkzZ95auXLlzMG+r8LCwnXXr1832c7NzQ0mTZq0k8SJjFk0NzdHNzayW7Dz8/MDDw+P/NHy211cXEoCAgKgqKjoge30ej2Ul5cvi4qK2jMU9xUVFQXW1tb1lmo3lUrlWlFRwcqPVyaT4XbuaNEaBAEEYZ4OI40GmgRKb96VhEIAAksk3fchCIRdBMEB1hvkBhqMlE5GAIzqiiU9PT1w+PDhry9evPimTqezZhiGp9frrRmGISmK4hkMBqAoCgwGw12hdu9/0zQNer0edDod6PV6UKlUoFQqoaenB3p7ewdE2N0PHo8H8+bNg/Xr18/09PTMGip7cblcetKkSf/08PBIMJVIVaPRQG5u7oxHH33UdbCTqObl5b3MJvdeREQEDHTKmrFAW1tbBFvf0nHjxtGOjo7lo+W3SySS1sDAQG1RUdED3RMoioLa2tqkobovDocDhAVnpNBoNDK2QT7W1tYwWMFmiOVDgsEgNJop+AgeHwAX+H7lS01qzPLhYwwABnrUl1drb2+HTz/9FAAghGEYuPNnyUilUnj00UfhmWeeiRyOrUlvb+9T8fHxwCZz/rVr16CkpGRFfHz89sG6nxs3biQVFhZKTbWzsrKC+Pj4DGtr6wYcEMyjs7MzQKk07R7K4XDA3d394mjKoyaRSFpvJ4+e86B2DMNAXwKuRisajcaRrT3c3d1BKpXiezlG4QDBoQkW+Y/+BwMN7JewxhgMQ4IZAQEElwtA8pWj3ywM6PV60Ov1A7bVOpj4+fnB66+/fmjDhg1Ow+WHJhaL5XFxcXtsbGxMtm1sbIT8/PxXBjMnX1lZ2bLS0lJWH5WpU6duxcHA7HeEbG9vZ1VnzNraGjw8PC6ONhu4u7tfZJODsqOjA3Q6nRR7DUB7e3sIm9RSXC4XfHx8lOZuAyKjSPARJKkFnsCsg4xarVll2MYSRr1WZjRHzHB5QPAFWGPUQrC2toZHHnkE/va3v61esmTJIrF4eKPRY2JidgcFBbFqe+HCBdfGxsZByevY29vrmp2dvUarffCCEofDgdjYWBg3blwe9ibz0Ol00ra2NlaCTywWg4ODQ+Vos4GNjU0Tm3x8arUaFApFAPaaW36fbCbQHA4HnJ2dCy01cTQyBIIPuKQG+OblyTLqNABGhkTz3U8Ma2RgNEPwkSSAQNCLlhteSJKEyZMnw5///Oe0N99809NS0om4uLgUxsbGNvN4pnM7lpaWQnl5+dLBuI+Wlpbo3Nxck+0kEgnMmzdvPX5UzEer1dq2tbWxaisUCsHOzu76aLOBVCpttLa2ZmMrUCgUvmO9zzAMQ7a0tLASfFwuFxwdHcvwTRvLgo/DoQm+oMssUdPdeWvrEvmlbXq6fMza0uXxgeBhYtrhgCAIkEgkEBMTA5s3b8545513YhYsWLDa0vJtJSUlbbC3N12jWavVQmZm5osajWZAc5QxDEPm5ua+wSZYIzIyEgIDAw9i7zIfmqZFvb3s5n4ikQhkMlnNKBR8rWwEH03ToNFoHMd6nzEajdDd3R1hZLHjxuFwwMHBoRzftDG8sAEAQIit5ADgwfoD0NEGRr1ORlhhaZZf2EbeFAdm5HsjpLaANYmHFh6PBy4uLhAcHAwpKSlpCQkJW2QymcVGSQcEBByJjo6Go0ePgqmBPScnB1paWqJ9fHwGLLHq7VJqCaaSVXO5XJg7d+4RDNbou7A2tWV+d+AmSRCJRN2jzQZCobBbJDIdw2YwGECv10uw19yK0mc7wbWyssJv9lgXfBxbu0pCKI42atXsZhU6DRg75SEgc8Dl4Z8P2q1NsUYDxa4xlwSOsxt+HIcIJycniIyMhKioqOKIiIi08PDwNJFIZPH+k3w+Xzlv3rz3T5069aIp5+zOzk44c+bMNh8fnwHz5SspKVlVVVVlsp2Pjw9ERUV9jD2tbxgMBiHbus5cLhcEAsGoE3wkSWrZuC/cFnxjPmjDaDSSWq0W2KzwEQQBWOYQBR8Qtg5lhJUU2Ao+oCkwNNVP5/phnq1fCL6W+gig2Ak+gscDjjM6tw8kBEEAl8sFLpcLfD4fxo0bB6GhoRAREZExfvz4/Z6enmeHKkP/QBIREZEWGBj4YklJyQPb6fV6yMzMjE1NTXUdqOLomZmZ2xQK07p4ypQp4OXldRp7YR/Hjlu5KdkKIxiN1RJ4PJ7KDMGHK3wAwHaSAAAgEGCA4JgXfByZfTlhJQXoaGV1kJHSg+F66QqYNncDAG5H3rVLb4+HobGO/QE8PnCdx+Wi5djD5XKBw+EASZLA5/OBz+eDQCAAPp8PUqkU3N3dwcfHp9nX1zfDz8/viJOTU7FIJFIIhULFSA4kcHR0LJs1a1ZDSUmJSdeL69evQ0FBwYszZ87c1N/r1tfXz7h8+TJpyinc3t4eJk+evBNXEPoxfhiNQLGcLBqNRhiNgTEcDofmskwTRqArDADcSkRtZJk1w2g08tBiY1zwEXZOxYTUmv1RBgMYaq7JQE+JgM/HAf6OWRpqkhlFO+v2BF8AHGf3nLFin5iYGPDz8+vTsUKhEPh8vlYoFCoEAoFCJBIpbG1ta2UyWaVMJquVyWSVdnZ2VXcEx2j7GJIkqY2Li9vu6uq6y1SSVblcDrm5uW9Mnz59c3/tcPny5TVssvgHBQXBhAkT9uAo0HcIggA2q1u3hmAD6PV6Kz6frxpVY6jBIGRT8/r2Cj5+ewCAz+cDQRAmRZ/RaASdToeromNd8HFs7Go4jm4AUMj6QKa9FQwtDVO4nn4ZaMbbg1X99WSjooP9bNbVEwgbWe1Ysc9jjz12aMmSJYuwp/SN8ePH74+Ojt515MgRNkINbty4keTr69vn91OlUjlevHhxhanIUT6fD5MnT650cECf3v7A5XI1bJIO3xF8FEUJR5vgoyhKwGaV87bgw3RWAMC2zwAA6HQ6GVps7MK5PbWkuf7BOQSffcdhOlqBvnZlDZrw9uxJr5MaqktTWftBEgSQ4yPlBDl2ZqkGg0GIPaXvSKXS5smTJx+xsrIy2ba8vByKi4tX9ed69fX1M/LyTLuYOjg4QGJi4qv4hPo5GHM4NNuP9+20JPajzQY0TQvZ+DHiCt+dzwhBC4VCYFM9w2g0glqtdsQ3bawLPgAgA8LTQGTF+kCjWgV0WWGqUafFGQMAMI11iXSFGRW4uFwgx0fuAZLUovUQtkyZMuVtLy8vk+30ej1kZ2cv6+np8ehTf2YYsrCw8Ln6+npTHxyIjY0Fb29vDNYYAMEnFLKbE2m1Wujq6vIabTZQqVTOKpXpRcvbaWm6sNfccndh+U6DXC4PRouh4AOuh88pjo2dWQcbqkuBuVmbhGYEMNyoWGRoYJ8HlWPnCBw3ryy0HGIOHh4eObGxscDGsf3ChQvQ0NCQ0Jfr9Pb2up44cSLJlF+QQCCAlJSU7bja0n94PJ6GTdJhgFu51zo7O0ddpYne3l7nnp4ek+1EIhHY2dlVjvU+QxAE2NnZFXI4HNPfKIMB2traIvBNQ8EHhMiqnQyZAGBGYWVDQy3QZYXPjfUya8beHg8q/8wqoCnWx5DjI4Fja48+T4jZpKSkPC+Vmk5B1t7eDjk5OW8aDAaz38/KyspFpaWlJtuFhIRAaGhoOj6V/iMQCLocHdntuGk0Gujo6Bh1gq+np8etu9t0ekGJRAIymWzMCz4Oh0M7OzsXstnSZRgGWlpaYhiskoWCD0iekhc7cyvB47M/mjGAPvt4EtMhDxnLRjTUlKdShWZkV+FwgQyPPURIbTDpMmI2gYGBByMjI1kN8MePHw/p7e11NfcaJ0+e3MGmzFdiYmIZBmsMDCKRSOHk5MTKL0SpVEJjY+Ok0WaD9vb2QDY5Hx0cHIDH46E7DNyqt812ha+mpkaIgg8FHwAAcL0DD3K8/M06AV1VAnRx/itgNI7NTkTppbqTB3cYNeyD5bgevkAGhO7F7of0BYlE0pySkrKfJE2/cnV1dXDp0qUXzTl/S0tL9IULF0hTpdTc3d0hJibmn6MxAfBwwVY80zQNDQ0NsaPp403TtLC+vj7eVM5HLpcLbm5uKPZuY29vX8k22KexsRG6u7s90Woo+IBja1/FmxBvXnZ+igLdiQOrmK6OwLFoQLqs8Dm66AIAy8SXAABcvxDgemA6G6TvREVF7WGT07C7uxtOnz690Zxt3fPnz2+8efOmyXbR0dEQFBR0EJ/GwGFnZ1dla2vLqm1TU5NVe3v7qBl3e3t7nWpqakz6mPF4PPDz8zuMveUWIpFIPm7cOFZtlUol1NbWJqPVUPAB8PhKMjRmN2FrZvBG1VWgzhz5aKwZz9jT5aM7+u07ZiVbllgDb8LkNOBjiRuk77i7u+cmJCSwWlkrLi6G6urq+Wza6nQ6aV5e3jJTjvNSqRTi4+P3SyQSLMY+gDg7Oxe7urLbgb9x4wY0NTVFjZbf3t3dPa6szPQCp0AggJCQkG+wt9xCLBbL/f3Z7cx1dXVBWVnZUrQaCj4AACADw9N4YRPNEz46LehO/5BguF62bCwZT5+XuY26fN6sY7g+QcCbOHULdj2kP/D5fGVcXNx2BwcHk21ra2vh4sWLr7A5b0VFxeIrV66YbOfp6Qnx8fHb8UkMLC4uLgVsV2vq6+uhurp6zmj57TU1NbMaGxtNtnNycgJXV9cC7C3/FXwBAQGsAlg0Gg2UlJQk6PV6KVoOBR8QUpsGXlziHkJiY9aJDHVVoDv23ddGldJ1LBjOUF89X39s3zKjmn2yd4LPB0Hiw3sJCQZrIP0nMjIyLSTEdLyUXq+H/Pz8GZ2dnSa3/65cubKqtvbBxV+4XC7ExcXRbm5u+fgUBhZbW9taDw8PViu3RqMRioqKlqpUqhGfgJmmaeH58+fXsymrFhISAgKBoAt7y933kfbx8clg49MLAFBdXQ03btxIRMuh4AMAAF7M1C2kv5n5GY1G0J87Cvpzx3YDM7orKhjVva7aA2mH6aqr5r2YfiFARk/dClj0GxkA7OzsKuPj4wvZJF69dOkSXL9+/YG+Ox0dHYHZ2dkzTDnNS6VSSElJWYdPYHAICAg4IpGwK3mam5srbG1tHfG51RQKhef58+edTeV9JAgCJk6ceEQkEqFLzD2MGzcu39OTXSxGdXU1lJSUrECroeC79VJJbRr4M+bvJQQi84SQSgna7z5ZSF8rHr2dyUALdccP7KOyj5sVqAEkD/iJCw9xZA6V2O2QgSIxMfFVZ2dnk+3a29vhwoULGymK+lV1eOPGjaRLly6ZPFd0dDT4+/sfQesPDlFRUbudnJxYtW1ubobc3Nz1Iz1aNycnZwOb7VxnZ2cICwvDvI8/w9PTM2v8+PGs2up0OsjOzk7t6uryQcuh4AMAAF7crFfJyFizT8i03ARN+vsfG+qvj75IICNDUheztugOfZFg1GnMOpQXEXvLdw9X95AB5E7lDTaJV0+dOuWhUCjuu61L07Tw1KlTO0yVtSJJEpKTk/disMbg4eXllRUQEMBu/mkwQEZGxiKlUuk8Un+vWq22P3369LNs8j5OmDABXF1dC7GX/C/W1tYNoaGhxWwq8AAAnD9/Hqqrqxeg5VDwAcCtVT7B/Cc2cezMr7VMXy0ATfr7x5jWxtjRZCyq5NKLmi/+uZFpbzHrOMJaBvykhbs5Di44UCEDCkmS2nnz5m0WiUyvxtfU1EBRUdGa+/0/hULhe+7cOaGp7Vx/f3+YMGHCHrT84D7TKVOmZLDNrVZWVgZZWVlvjNTfm5eX92xhoemhkSAImDBhQiGWVLs/4eHh6S4uLqzaKhQK+P7773fpdDoM3kDBd3vgCY3+kD8txfwEl0YGqItZoN377zxG0T4qqnDQ1aXLNJ++u8NQX23egQQH+HGzgBc740/Y3ZDBIDg4+Jvw8HCT7bRaLRw9evTF+23rXrhwYSObLbWEhATtuHHjMFhjkImPj2cVgQ1wK7fajz/++LuRWGqtp6dnXEZGxlttbW0m2/r4+EBMTMz72Dt+VfClsV0ZNhqNkJmZCVeuXFmDlkPBd0urCEQKftLCZVz/Pmg2mgbdmcOgSdtROqJX+hiGpMsvr1HvfutrQ7X5FaS4Hr4geOTJRYRQLMfuhgwGMpmsJikpKZ/Ntm5JSckvtnIoihKeOXNmlaktNUdHR4iLi9vJ5/OVaPXBxdXVNX/27Nms2xcUFMDJkydHXLqnvLy8ZzIzM1m1nThxIoSGYoWiX8PKyko+Z86cQ2xW+wFu+fWmp6fv6O7u9kDroeC7JVh8gg4JFixPJ6z6sPJLU6A/8xOo97yTZ6hnl/jVojAYhFRB9mb1v7Z+bKgsMftwwkoKwsWr07leAejgjgzeS8zh0DExMe97e3ubbNvS0gJnz579y73/Vl5evoxNwtuQkBCIjIz8GC0++AgEAmVSUtKrMpmMVfve3l7Yu3fvkxUVFSkj5Te2tLREfP7555vZ1M61t7eH5OTkzSRJYkm1BzBt2rQtbPM4AgBkZ2fDkSNHPkXLoeC7Cz9hzgb+jPkAHI75V2AMQOVngfrfbx+mSwvXwQiJJjPqtDLdye/3qvf87U3Djao+WJYL/MSFWl787A0YqIEMNv7+/kcmTjSdMF2v18OlS5dCOjr+WwqxoKBgXV1d3QOPEwqFEB8fXyiTyWrR2kNDUFDQ/vj4eNbty8rK4Msvv9yvVqstPi8fRVHCb7/99ouCAnb5kydMmADR0dEfYq94MA4ODmUpKSnNbFb770wUvvrqq6QrV66sQuuh4AMAAEIolgsfWxXHi4zr21UYA9AlF0G1c9O/dEe/PWxU91pucmajkWTamqM1n+1s06TtXMg01ffpNLzoKSBcuGIGIcKtXGTwEYlEivj4+DQ2dVhLS0vh6tWrKwAA5HJ5SH5+fqyphLdOTk4wY8aMTWjpoUMmk9XOmzfvfXt7dvrNaDTCjz/+aHXgwIE9NE1bdC7U48ePv/XNN99EsEm0bG1tDU888cRWKysrHEtNcDuIay1bXz4AgMrKSnj//fc/bWpqikULouC71dB5XL5w2XPPcz39+nYloxGY1kbQfPZesubTd5sM1aXLwGBZg5JRr5NSl85uVv3jjwW6I3tJY29Pn87D9RsPwmXPreY4o3M7MnTExsbu9PU17bff3t4O+fn5L9M0LaypqUk2FSFJEATExcWBl5dXFlp5aJk6derWhIQE1u1VKhXs2bNn0dmzZ1+11N9UWFj41EcffbRBLmen31JSUjBYwwx8fX0zFixYUMk2RQsAQE5ODnz44Yd59678I2NY8AEAkMFRHwuf/N1OjoNLny9o1KhAl/EdqHb+39fag19kMR1tw58l3mgkDTcqF2rSdnaqP9jyJl2cD2AiPcUDhDGIlv/ubTIoIg27FzKUODk5FU+ZMqWZx+OZbHvu3DnpjRs3NHl5eTtM+VCJRCJISUlB/6lhwMrKSv74449vYJuIGQCgqakJduzY8Zfc3Nz1lvZ7ysvLF7z77rtp5eXlrNp7enrCokWL1uPqnhkLDlwuPWfOnPVhYWGsjzEYDPD999/Dv//97wo2JRiRMSD4gCBofuysTcKlzxwiJNb9EVhgqL8O2q8+iFW9+/oV3fHv9jGK9pAh9++jKamh4XqyJv39etW7rx/UHdlLMh1tfTemnSOIlj+fzps4bQt2LWQ4mDt37no227o1NTWQlZUFJ06cMNk2NDQUgoODv0PrDg9RUVG7Fy1apGRbKxXg1jbd22+//Y+8vLxnLaUKR0VFRcrbb7/948WLF1m1FwqFkJqaWjlhwgQMFDITPz+/jKVLlx6ytmb/ndbpdPDNN9/ABx98UCGXyy0unRrDMGRzc3O0Wq12xCc8FIIPAIAktfzER1aKlj6bQ0ht+nVxo14HdMkl0Hz011TV1hdKdUe+Pmaor55/y8fPSA5SryGNXR2BdPnlNZrP/9HY++fnj2kPpLkablQBMIY+n5awtQfhk7/bz5/x0FrgcHElBBkWvLy8TsXGmnbFoSgK0tLSoLq62sQcj4DZs2fnY7Lb4YPH42lXrFgxMy7OPB/qiooK+L//+78Pf/rpp3c1Go3NcN0/TdPC3Nzc9X/84x+PXrhwgfVxU6dOhdTU1EdxZblvzJ8/f/XcuXOBY0awpUajgW+++QY2b95cWlFRsdBSfktbW1vEvn37Dr788ssF165dS8Wn2zf6JKoIvkDJT0l91GgwHNZ+90msUdnVH9kHRp0W6KpSoK9fS+I4uSXxwicCNyR6L+kdeIjj6pFFWEn7V8aJMQgZRXsg01Q/g75etpQuuZRAXysCY0/XgBiRI3MA4fLnD/ETH1kJXByckOFDJBIp5s6du/vkyZPrdDrdr791RiO0traaPJ+npyfExMTs5nA4GGk+jLi4uBSuXr16a21t7ZtNTU2sj6uvr4dt27atv3HjxrQlS5ascHZ2LhvK+1Yqlc6HDx9+77PPPltWU1PD+jhvb29Yu3btWgcHhzJ8+n0fC1avXr2gtLT0MNstdIBbkfynT5+Gtra2g0899VR6YmLiq8NVSrG9vT0kJyfnjcOHD684f/48UBQFtbW1idHR0bvxCQ+R4AO4FbkreGjpAuDxv9Z+82HSgIgnxgBMSwPoWhqAyPppGcfVYxnHeRxwx/kouF7+RzjObvkce5dCQuZQRvB4t4vZEneF4+0vGc+o1dgyHa0RTHtrNNNUP4Ouq0pimuuBaW0ERt7cZ/+8+4o9BxcQrXghnT9z/loUe4glEB4e/mVwcPC6oqKifp8rJiYG/P39MY+kBTB58uTtK1eunP/BBx9Es6k7e89HEz766KOoK1eulD711FO/j4uL+xePxxvUsYphGPLatWsLPv/88+9PnDgBSiX7XN12dnbw3HPP7Y+MjEzDp94//Pz8MtatW7d727Zt61pa2JcENRqNUFJSAm+99daKvLy8FUuWLFkbFhaWPhSrrQzDkK2trRGZmZnvZGZmJhUUFMC9/f3atWupOp1OKhAIMAH8UAk+AABCJJYLUlIf5VhJ/6X58p8rGPnATQKMeh0Y6qrBUFcNFOecjBCJVxAC8QoQCIEQiYGwkgIhFAEhFANwSQC9Fow6LRjVKjCqesCo0wLotGDUqMGo0wyK8biefiB88oWd/MmzNuE2LmIpuLq65k2fPr2hqKioXxn0bWxsID4+Pl0sxtRClgCfz1cuXbp0QVtbW316ejpJURTrY7VaLZw9exbKy8vfnTZt2rtLly5dERgYeEwsFncM5D3q9Xqr5ubmiEOHDn145MiRiPr6ejAY2LvKiMViWL16ddn8+fN/i6vKA7AgweHQSUlJG5qbm2Pef//9WHMmCgC3au5+9913kJub+/GsWbM+fvTRR1d6e3ufkkqlzQPcb6RKpdK1pqYm+fTp0+9kZ2cLb968CSqV6hdtKyoqgKIoCQq+IRZ8ALe3d2fNX0vYyCq1X/1rC329bEBX0G5LfjCqesGo+pXOShAARuPQWY3gABkWA6Llz68nw2J2A2BiZcRy4HK59MSJE98fN27cO2zq4/4aPj4+EBcXtxMtajlIJJLmZ599NlQul1ccPXrULDFlNBqhra0NDhw4AGfPnk2fMWMGPXPmzHeCgoIOu7m5Xe7rqh/DMGR7e3vg9evXZ+Xm5q4/ceJEYH19PbDJsfczQQvLli2jly9fPhs/5gMHj8fTPv744wvkcnn9559/LtTr9eY+X2hsbISvvvoKfvrppy8mTZoEM2fO3B8YGHjIxcWl0N7evtJcca7X66Xd3d0ecrk84ubNm1PKysqWXbhwwbGiogK0Wu0D+3VtbS0olUrX4dpmHtOC79Y0gqvlTZy2lWPnWK7dt2ef/vwpAMMQaqAhFHuEQAT8ackgeGxVCtfDLwO7EGKJhIWFpYeHh/dZ8JEkCZMnT1a4uLgUojUtCzs7u8pXXnllKsMw2cePHzdbWBmNRpDL5bB//37yyJEjm0JCQjaNHz++OyAg4ISvr+8ZFxeXYkdHxzIrK6v7rv7RNC1sb28PbG1tDamvr4+vrKxMuXbtWuDVq1eho6NvC4YCgQCWL19Or127NnSgV4+QW+l9nnnmmRCDwVD59ddfk1qt+dqeYRjo7OyEjIwMOHXqVKqbm1uqn58f+Pr6al1dXQscHR2L7e3tq6ysrJr5fL6Sx+NpaZoWUhQl0mq1tl1dXb5dXV0+7e3tIU1NTRFNTU1QV1cHN2/eBHNEqEqlgpqammRXV1ccm4ZF8N1ZWfAdv1+0ZmMk1zvga92RvSGMon1UGYvj6AKCh5/MF8x+NJWQ2jRg90EseSVoypQpGefOnUu+37aIKWxsbGDu3Lnr0ZKWiYeHR86rr74ax+Px8o4cOWK26LuDRqOBgoICKCgosBEKhan29vap1tbWcOdPLBaDSCRScTgc0Ol0VhqNBpRKJXR3d0NPTw90dnaCUqkEYz8m3SKRCFauXKlcu3ZtqI0NjquDha2tbe3vfvc7Xx6PV/rFF19INZq+uzrRNA319fVQX18PmZmZQh6PlyCRSBKsrKxAIBAASZLA5XLBYDCAwWAAiqJAo9GAWq0GjUZj1sr0z9Hr9VBRUZGakJDwNj7VYRR8AAAce+di4eLfTub6h7ysPZC2hS4vAqD0I9pIhMgKyIhJIHx01fNkUEQ6kDzcbkAsnunTp29OT09Prqw0P6PKxIkTwdfXF1ewLRg3N7f8V199NdTKyqr08OHD0NPT06/zabVaaGxshJ+vChMEYQUA/RJ1v4aDgwM89dRTZU8++eRs3KIbfKytrRueffbZILFYnJOenu7T3j4wizIURYFCoQBTSdwHAr1eD9euXYvGp9kHfTY4MpKn5MVM22q14e1I0dJny7juPiNUDpNABoaDaOWLp6xe+n+eZGjMbhR7yEjB2dm5MCEhgTYnDxcAAI/Hg+Tk5DQM1rB8HB0dy1599VWnl156Kcvd3X1QrmE0GgdF7I0fPx7+7//+b89vf/vbGBR7Q4dUKm1eu3ZtyKZNm9KCgoJG5G+ora2F3t5eV3yaliD47pzc3qlYmPp0jPilrauFDy+nOTKHWwEWlg5BAMfJDYSLf9sgfvn/pQgWLE/BLVxkpMHlcunk5OT1UqnUrOMCAwMhIgJLA44UxGKxfNmyZSl//vOft8bGxoI5NVSHA5FIBPPnz4ctW7asnT9//trBThGD3HdSp33ooYfW/uUvf3k+OTkZhELhiLhvgiDA2dkZ5s6dW8zlYmYMcxn8kjtcrpYcH5nG9fI/wpsxf74+68jHVF4myXTIhzawg5U1eMBxdAX+lNly/rSU5zkevhkEH6PFkJGLn5/f4ZiYmH+dPn2a9THTp0+Xu7q65qH1RtYHfPr06Zv9/f0P//jjj5/u3bs3pLm5GZiBzpjQn+GVJMHb2xtWrlyZMW/evHW2tra1+OSGDw6HQ0dHR+/29vY+dezYsX99/vnnSXV1df3yrxtMoWdtbQ1Tp06FFStWPB8WFpaOkdyWKPjuPDCRlZwMikgj/YK/M8xNna4/c/hT6kqeI9NcD0bVcD43AgipNXDdvIAXM7WSN33e81wX9xxMooyMBmxsbBrmzJmz/+zZs6lsHPtdXFwgNjZ2J666jEzc3Nzy16xZEzlx4sS1X3/99b/y8/OhtbV1ULZk2c/5ueDu7g6JiYn0smXLUjw9PbO4XC6msrIQ7OzsKpcuXZoyadKk5L179x4+d+4cNDQ0WITwIwgCHBwcICYmBhYvXrx10qRJ76OryQgQfP+9Ik/J9Q44InrqZTdBS0MCXV60hr5WvIK+VgSG+mqAoepkPD5wPXyBHB8JZNjE3eT4CXs4Ds7FQGBOPWR0ERwc/J2np2cqm9JWoaGhEBYWlo5WG7lwuVw6JiZmd0hIyN6CgoIXMjIytpw7dw7MKck2EHA4HAgICICZM2cqEhMTXw0LC0vHiYTl9pmAgIAjr7/+uuiRRx5Zdvz48V1nzpyR1tTUDIvwu9N34uLiICEh4e24uLidKPRGouD7r3SnOa6eWXxXzyxewtz1TEvDFMONqkWGqqtr6OpSMNRfB6NWc0sAMgzcLZ1m/nUAOBwgOFwAsQRI7wDgBoTJuf4he7kefkc4zm75hECkwK7QNwIDAw8++eST8x9Ut/UOQUFB+9FiQ49Go5Gp1WqT7UQiEcTHx+eM1tQYUqlU6+DgIDS12iUUCmEoSkgNNiKRSDF16tSt0dHRHz722GMLCwoKXszOzo4oLi7ud2qMX1uN4XK5YGVlBRMmTICkpKSMqKio3X5+fhmWaE+RSKRwcHCAB1UsMRqNIBKJcsbKWMHj8bSRkZFpISEhex9++OEFJSUlK3JzcxdeuHABenp6gKbpQVkt5nA4QJIk2NraQlRUFEybNu1IZGTkx15eXmeFQqFioK91p68+6Llbui8sj8frtbOzA41GAw8KzKNpGiQSiZwgCCCGc6n/PlYmjZROChqNLdPdGWiouZZqqK9ew7Q2AtPWBEZlNxj1utsi0ABG5o4YvCPqOABcLgCXCwRfCIS1LXCcxgHHxR243gHvk96Bhwhr2xpCKG4HHh/3/wcAg8FAUhQlZdlBlbiVM7TQNC38+OOPr+zcuTPQVFsfHx/497//Pdvb2/vUaLRFd3e3h1qtdmQjXOzt7ctG22oUTdNCpVLpWl1dveDChQsbi4qKPBoaGqCnpwfUajXodDqzPuYcDgeEQiGIxWKQyWTg7+8PUVFR+bGxsTvHjRuXI5FImi35fe/t7XVVKpUmIz2lUmnzWI0iZhiGVKlUjo2NjQkXL158oaioaEZlZSUoFApQq9Wg1WrNzgFJEATw+XwQi8UgFovByckJQkNDISoqKi0sLCzdwcGhzMrKSj4YpfX0er00Pz//5WvXrqUSBBHxgKaFPj4+pxITE1+11Gej0+mk3d3dPjRNC4kH7EwajUZSIpE0W1tbN1iW4LuPAASj8ZYQZAw8Y0+XD6NoDwGNytFI6SWg1Tga9VoZEFwNwef3gkCoIATCLkIolnPsnYoJiXUzEBwKCIIGDgFYAg0Za8jl8pB169aVFhcXmxyEU1NTYcuWLTwU5WPjQ24wGMiWlpaYysrKhfX19TNaWlqi5XI52dPTAzqdDiiKAoqigKZp4PF4d/+EQiHY2tqCs7OzwsXFpdDb2/tUYGDgITs7u0rsO6N/gt/T0+NRVVW1qK6ubkZLS0t0S0uLxx0BeKfPUBQFDMMAj8cDLpd7V+BJJBKwtbWFcePGFXp4eGR5eXllubu75wqFQsVQ1k5mGMbk7uZorOVs2YIPQZB+cfr06XdefvnljaZKKYlEIvjnP/+5edq0aVvRamOXO6uAWq1WRlGUVK/XS2iaFt0uldXL5/OVIpFIYW1tjWmqkLuoVCpHtVrtqNfrJXf6DcMwvDu7OkKhUCEWi+USiaR5NAqpkQKJJkCQ0fvxPnbs2EY2/pUhISEQEhLyDVptjH8QSFIrk8lqAQBTpiCssbKykltZWWFQhYXDQRMgyOjkxo0bSYWFhaz8spKSkoptbW1r0GoIgiAo+BAEGUFkZWVtaW1tNdnOzc0NYmJi3kf/KwRBEBR8CIKMIBQKhU9eXl40m+3ciRMngr+//xG0GoIgCAo+BEFGECUlJavLyspMtrOysoK4uLhDUqkUi9cjCIKg4EMQZKRAUZTw4sWLL7S1tZls6+3tDbGxsTvRagiCICj4EAQZQTQ3N8dlZ2fLTL78HA5ERUWBh4dHDloNQRAEBR+CICOIkpKSFZWVlSbbWVtbw+zZszdhXiwEQRAUfAiCjCA0Go0sIyNjzYPqg94hMDAQIiIi0tBqCIIgKPgQBBlB1NbWJhcUFJh+8TkcSE5OzhKLxZgsFUEQBAUfgiAjiYyMjF0KhcJkOzc3N4iNjd2J27kIgiAo+BAEGUE0NTXF5uTkONK0aQ03ZcoUGDduXD5aDUEQBAUfgiAjiNzc3E01Naaro4nFYoiPj98jkUgw9x6CIAgKPgRBRgrd3d0eubm5C3t7e022DQ0NxWANBEEQFHwIgow0ysrKluXl5ZlsR5IkxMbGNmPuPQRBEBR8CIKMINRqtePRo0ffkctNB9w6OzvDzJkzN6HVEARBUPAhCDKCqKioWHjy5EmT7QiCgKioKAgODv4OrYYgCIKCD0GQEQJFUcIDBw583NHRYbKtWCyGRYsWbeXz+Uq0HIIgCAo+BEFGCJcvX16XlZUFRqPRZNvo6GiIiIj4FK2GIAiCgg9BkBFCV1eXz5dffrmjpaXFZFuBQAAPP/zwXltb21q0HIIgCAo+BEFGCCdOnNh57tw5Vm1jYmIgNjZ2J1oNQRAEBR+CICOEysrKhXv37mWVd08kEsHcuXNPubm5YWUNBEEQFHwIgowEOjs7Az/88MODV69eZdV+woQJkJiY+CpaDkEQBAUfgiCDAMMwpFarlQ3U+bq7uz0++eSTS8ePH2cVqCGRSCA1NTXNxcWlEJ8GgiAICj4EQQaBpqamuG3btnUePXr0X0ql0rU/5+ro6Aj86KOPSr/88kupXq9ndUx8fDwmWkYQBEGARBMgyOBx/vz5jQcOHICMjIx14eHh6+bOnXskLi5uu4ODQ5lIJFJwOBza1Dl0Op20srJy4ccff/xFVlYWaDQaVtd2cXGB1atXr5dKpc34JBAEQcY2BJttIQRBzEev10tfeeWVnhMnTtz9Nx6PBw4ODjBp0iSIjIzM8vHxOWVvb18uFovlfD5fyefze28fK1GpVK5NTU1xOTk5bxw9epRsbW0Ftu8rj8eD559/vnbt2rWRmGgZQRAEQcGHIINEVVXV/Oeee+5wQ0PDr7YRCATg5uYGMpkMxGIxiMViAABQqVTQ0dEBDQ0NoFKpzL72jBkz4C9/+UscRuYiCIIgALiliyCDRl5e3kZTJc90Oh3U1tZCbe3A5UP28vKCtWvXbkCxhyAIgtwBgzYQZBDQarWygoKCGWq1ekivK5PJ4Pnnn987ceLE9/EpIAiCICj4EGQQqaqqml9RUTGk15RKpbB69erK+fPnP8MmGARBEARBwYcgSD8oKytbduPGjSG7nkQigZUrV8qffPLJmRikgSAIgvwc9OFDkAGmp6fH49KlS/NpemgW2ezs7GD16tVly5cvn40pWBAEQRAUfAgyBGg0GhnDMGBrawvd3d0wWJHwXC4XAgMD4dlnn90ze/bsDbiyhyAIgvwamJYFQQaB9vb2kPz8/Fdyc3PXFBQUQF1dHQzkip+TkxPMnTsXHn/88SXjx4/fjxZHEARBUPAhyDCh0WhktbW1ydeuXVt88eLF1Pz8fGhtbQWDwQAGg4H1eTgcDnA4HHB2doaZM2fC3LlzX42IiEizsrKSo5URBEEQFHwIYiGoVCrHzs7OwKqqqoUlJSUrKisrXe8kVqYoCgwGAzAMc+vFJAggSRL4fD7Y29tDUFAQTJw4MT0iIiLN2dm5UCQSKdCiCIIgCAo+BLFgDAYDyTAMSVGUVKFQ+HR2dgaq1WpHiqIkAAA8Hq9XIpE0Ozg4lNnY2DTweDwll8vFVCsIgiBIn/j/AwBDFeS0ddWDGQAAAABJRU5ErkJggg==;" vertex="1" parent="26">
                    <mxGeometry x="157" y="366" width="77.19" height="19" as="geometry"/>
                </mxCell>
                <mxCell id="32" style="edgeStyle=none;html=1;entryX=1;entryY=0.5;entryDx=0;entryDy=0;entryPerimeter=0;fontSize=16;exitX=0;exitY=0.5;exitDx=0;exitDy=0;" edge="1" parent="53" source="8" target="10">
                    <mxGeometry relative="1" as="geometry"/>
                </mxCell>
                <mxCell id="33" value="Stores Inference Logs&lt;br style=&quot;font-size: 10px;&quot;&gt;and&lt;br style=&quot;font-size: 10px;&quot;&gt;Misdiagnosis Report" style="edgeLabel;html=1;align=center;verticalAlign=middle;resizable=0;points=[];fontSize=10;fontStyle=1" vertex="1" connectable="0" parent="32">
                    <mxGeometry x="0.1647" y="-2" relative="1" as="geometry">
                        <mxPoint x="15" y="9" as="offset"/>
                    </mxGeometry>
                </mxCell>
                <mxCell id="37" style="edgeStyle=none;html=1;exitX=0.002;exitY=0.606;exitDx=0;exitDy=0;entryX=1;entryY=0.5;entryDx=0;entryDy=0;fontFamily=Verdana;fontSize=14;exitPerimeter=0;" edge="1" parent="53" source="8" target="14">
                    <mxGeometry relative="1" as="geometry"/>
                </mxCell>
                <mxCell id="38" value="Stores image for &lt;br&gt;further training" style="edgeLabel;html=1;align=center;verticalAlign=middle;resizable=0;points=[];fontSize=10;fontFamily=Helvetica;fontStyle=1" vertex="1" connectable="0" parent="37">
                    <mxGeometry x="0.2135" relative="1" as="geometry">
                        <mxPoint x="25" y="-15" as="offset"/>
                    </mxGeometry>
                </mxCell>
                <mxCell id="39" style="edgeStyle=none;html=1;fontFamily=Helvetica;fontSize=10;entryX=-0.004;entryY=0.853;entryDx=0;entryDy=0;entryPerimeter=0;exitX=1;exitY=0.5;exitDx=0;exitDy=0;" edge="1" parent="53" source="17" target="8">
                    <mxGeometry relative="1" as="geometry"/>
                </mxCell>
                <mxCell id="40" value="Loads Model from &lt;br&gt;Tuned Weights&amp;nbsp;&lt;br&gt;and Config" style="edgeLabel;html=1;align=center;verticalAlign=middle;resizable=0;points=[];fontSize=10;fontFamily=Helvetica;fontStyle=1" vertex="1" connectable="0" parent="39">
                    <mxGeometry x="0.2282" y="1" relative="1" as="geometry">
                        <mxPoint x="-19" y="20" as="offset"/>
                    </mxGeometry>
                </mxCell>
                <mxCell id="41" value="SQLite3" style="text;html=1;align=center;verticalAlign=middle;resizable=0;points=[];autosize=1;strokeColor=none;fillColor=none;fontSize=16;fontFamily=Helvetica;fontStyle=1" vertex="1" parent="53">
                    <mxGeometry x="89" y="151" width="71" height="23" as="geometry"/>
                </mxCell>
                <mxCell id="44" value="" style="shape=flexArrow;endArrow=classic;html=1;fontFamily=Helvetica;fontSize=10;entryX=1;entryY=0.25;entryDx=0;entryDy=0;strokeColor=#82b366;rounded=1;fillColor=#d5e8d4;" edge="1" parent="53" target="8">
                    <mxGeometry width="50" height="50" relative="1" as="geometry">
                        <mxPoint x="774" y="123" as="sourcePoint"/>
                        <mxPoint x="791" y="84" as="targetPoint"/>
                    </mxGeometry>
                </mxCell>
                <mxCell id="45" value="POST /diagnose/covid-abnormality" style="edgeLabel;html=1;align=center;verticalAlign=middle;resizable=0;points=[];fontSize=10;fontFamily=Helvetica;fontStyle=1" vertex="1" connectable="0" parent="44">
                    <mxGeometry x="-0.2004" relative="1" as="geometry">
                        <mxPoint x="37" y="-17" as="offset"/>
                    </mxGeometry>
                </mxCell>
                <mxCell id="46" value="" style="shape=flexArrow;endArrow=classic;html=1;rounded=1;fontFamily=Helvetica;fontSize=10;strokeColor=#d6b656;fillColor=#fff2cc;" edge="1" parent="53">
                    <mxGeometry width="50" height="50" relative="1" as="geometry">
                        <mxPoint x="648" y="162" as="sourcePoint"/>
                        <mxPoint x="773" y="162" as="targetPoint"/>
                    </mxGeometry>
                </mxCell>
                <mxCell id="47" value="Annotated COVID-19 Abnormality Image" style="text;html=1;align=center;verticalAlign=middle;resizable=0;points=[];autosize=1;strokeColor=none;fillColor=none;fontSize=10;fontFamily=Helvetica;fontStyle=1" vertex="1" parent="53">
                    <mxGeometry x="672" y="136.82" width="200" height="16" as="geometry"/>
                </mxCell>
                <mxCell id="51" value="" style="shape=flexArrow;endArrow=classic;html=1;fontFamily=Helvetica;fontSize=10;entryX=1;entryY=0.25;entryDx=0;entryDy=0;strokeColor=#82b366;rounded=1;fillColor=#d5e8d4;" edge="1" parent="53">
                    <mxGeometry width="50" height="50" relative="1" as="geometry">
                        <mxPoint x="774.74" y="203" as="sourcePoint"/>
                        <mxPoint x="648.0031578947371" y="203.0000000000001" as="targetPoint"/>
                    </mxGeometry>
                </mxCell>
                <mxCell id="52" value="PUT&amp;nbsp; /report/covid-abnormality" style="edgeLabel;html=1;align=center;verticalAlign=middle;resizable=0;points=[];fontSize=10;fontFamily=Helvetica;fontStyle=1" vertex="1" connectable="0" parent="51">
                    <mxGeometry x="-0.2004" relative="1" as="geometry">
                        <mxPoint x="32" y="-12" as="offset"/>
                    </mxGeometry>
                </mxCell>
            </root>
        </mxGraphModel>
    </diagram>
</mxfile>